<?xml version="1.0" encoding="utf-8" standalone="no"?>
<!DOCTYPE svg PUBLIC "-//W3C//DTD SVG 1.1//EN"
  "http://www.w3.org/Graphics/SVG/1.1/DTD/svg11.dtd">
<svg xmlns:xlink="http://www.w3.org/1999/xlink" width="460.8pt" height="345.6pt" viewBox="0 0 460.8 345.6" xmlns="http://www.w3.org/2000/svg" version="1.1">
 <metadata>
  <rdf:RDF xmlns:dc="http://purl.org/dc/elements/1.1/" xmlns:cc="http://creativecommons.org/ns#" xmlns:rdf="http://www.w3.org/1999/02/22-rdf-syntax-ns#">
   <cc:Work>
    <dc:type rdf:resource="http://purl.org/dc/dcmitype/StillImage"/>
    <dc:date>2023-05-14T11:59:25.832378</dc:date>
    <dc:format>image/svg+xml</dc:format>
    <dc:creator>
     <cc:Agent>
      <dc:title>Matplotlib v3.5.3, https://matplotlib.org/</dc:title>
     </cc:Agent>
    </dc:creator>
   </cc:Work>
  </rdf:RDF>
 </metadata>
 <defs>
  <style type="text/css">*{stroke-linejoin: round; stroke-linecap: butt}</style>
 </defs>
 <g id="figure_1">
  <g id="patch_1">
   <path d="M 0 345.6 
L 460.8 345.6 
L 460.8 0 
L 0 0 
z
" style="fill: #ffffff"/>
  </g>
  <g id="axes_1">
   <g id="patch_2">
    <path d="M 233.650056 55.973249 
C 232.696868 55.973249 231.743714 55.984582 230.790795 56.007244 
C 229.837877 56.029906 228.885261 56.063897 227.933151 56.109208 
L 233.650056 176.235644 
L 233.650056 55.973249 
z
" style="fill: #4c2e2e; opacity: 0.5; stroke: #4c2e2e; stroke-linejoin: miter"/>
   </g>
   <g id="patch_3">
    <path d="M 227.933151 56.109208 
C 227.853809 56.112984 227.774472 56.116839 227.695138 56.120772 
C 227.615804 56.124705 227.536474 56.128717 227.457147 56.132807 
L 233.650056 176.235644 
L 227.933151 56.109208 
z
" style="fill: #1f364c; opacity: 0.5; stroke: #1f364c; stroke-linejoin: miter"/>
   </g>
   <g id="patch_4">
    <path d="M 227.457147 56.132807 
C 227.417484 56.134852 227.377822 56.136917 227.338162 56.139001 
C 227.298501 56.141086 227.258841 56.14319 227.219182 56.145314 
L 233.650056 176.235644 
L 227.457147 56.132807 
z
" style="fill: #2e4c2e; opacity: 0.5; stroke: #2e4c2e; stroke-linejoin: miter"/>
   </g>
   <g id="patch_5">
    <path d="M 227.219182 56.145314 
C 227.179523 56.147437 227.139865 56.149581 227.100208 56.151744 
C 227.060552 56.153907 227.020896 56.15609 226.981241 56.158292 
L 233.650056 176.235644 
L 227.219182 56.145314 
z
" style="fill: #4c3d2e; opacity: 0.5; stroke: #4c3d2e; stroke-linejoin: miter"/>
   </g>
   <g id="patch_6">
    <path d="M 226.981241 56.158292 
C 226.584695 56.180315 226.188259 56.204303 225.79195 56.230253 
C 225.395641 56.256204 224.999463 56.284118 224.603431 56.313994 
L 233.650056 176.235644 
L 226.981241 56.158292 
z
" style="fill: #454545; opacity: 0.5; stroke: #454545; stroke-linejoin: miter"/>
   </g>
   <g id="patch_7">
    <path d="M 224.603431 56.313994 
C 224.128191 56.349845 223.653169 56.388521 223.178389 56.430019 
C 222.70361 56.471517 222.229081 56.515838 221.754828 56.562977 
L 233.650056 176.235644 
L 224.603431 56.313994 
z
" style="fill: #4a3d3c; opacity: 0.5; stroke: #4a3d3c; stroke-linejoin: miter"/>
   </g>
   <g id="patch_8">
    <path d="M 221.754828 56.562977 
C 217.881015 56.948027 214.028181 57.520943 210.209938 58.279701 
C 206.391696 59.03846 202.612545 59.982166 198.885838 61.107486 
L 233.650056 176.235644 
L 221.754828 56.562977 
z
" style="fill: #2c323f; opacity: 0.5; stroke: #2c323f; stroke-linejoin: miter"/>
   </g>
   <g id="patch_9">
    <path d="M 198.885838 61.107486 
C 188.375955 64.281062 178.349963 68.878891 169.087558 74.772708 
C 159.825153 80.666525 151.413275 87.801009 144.086591 95.977129 
L 233.650056 176.235644 
L 198.885838 61.107486 
z
" style="fill: #494141; opacity: 0.5; stroke: #494141; stroke-linejoin: miter"/>
   </g>
   <g id="patch_10">
    <path d="M 144.086591 95.977129 
C 123.159313 119.330657 112.174277 149.967472 113.494253 181.297903 
C 114.814229 212.628335 128.33727 242.232605 151.154707 263.743134 
L 233.650056 176.235644 
L 144.086591 95.977129 
z
" style="fill: #3b312f; opacity: 0.5; stroke: #3b312f; stroke-linejoin: miter"/>
   </g>
   <g id="patch_11">
    <path d="M 151.154707 263.743134 
C 165.435515 277.205984 182.797186 286.970548 201.719008 292.181544 
C 220.64083 297.392539 240.553731 297.893248 259.713535 293.639812 
C 278.873339 289.386375 296.703818 280.506716 311.643196 267.778605 
C 326.582574 255.050494 338.181551 238.856727 345.424169 220.615721 
C 352.666788 202.374715 355.335227 182.635066 353.195758 163.125773 
C 351.05629 143.616481 344.173257 124.924285 333.149546 108.686439 
C 322.125836 92.448594 307.292985 79.153449 289.950206 69.965532 
C 272.607427 60.777614 253.276301 55.973248 233.650048 55.973249 
L 233.650056 176.235644 
L 151.154707 263.743134 
z
" style="fill: #4b4045; opacity: 0.5; stroke: #4b4045; stroke-linejoin: miter"/>
   </g>
   <g id="patch_12">
    <path d="M 236.055304 53.568001 
C 235.102116 53.568001 234.148962 53.579334 233.196043 53.601996 
C 232.243125 53.624658 231.290509 53.658649 230.338399 53.70396 
L 236.055304 173.830396 
L 236.055304 53.568001 
z
" style="fill: #ff9999"/>
   </g>
   <g id="patch_13">
    <path d="M 230.338399 53.70396 
C 230.259057 53.707736 230.179719 53.711591 230.100385 53.715524 
C 230.021051 53.719457 229.941721 53.723469 229.862395 53.727559 
L 236.055304 173.830396 
L 230.338399 53.70396 
z
" style="fill: #66b3ff"/>
   </g>
   <g id="patch_14">
    <path d="M 229.862395 53.727559 
C 229.822732 53.729604 229.78307 53.731669 229.743409 53.733753 
C 229.703748 53.735838 229.664089 53.737942 229.62443 53.740066 
L 236.055304 173.830396 
L 229.862395 53.727559 
z
" style="fill: #99ff99"/>
   </g>
   <g id="patch_15">
    <path d="M 229.62443 53.740066 
C 229.584771 53.74219 229.545113 53.744333 229.505456 53.746496 
C 229.465799 53.748659 229.426144 53.750842 229.386489 53.753044 
L 236.055304 173.830396 
L 229.62443 53.740066 
z
" style="fill: #ffcc99"/>
   </g>
   <g id="patch_16">
    <path d="M 229.386489 53.753044 
C 228.989942 53.775067 228.593507 53.799055 228.197198 53.825006 
C 227.800889 53.850956 227.404711 53.87887 227.008678 53.908746 
L 236.055304 173.830396 
L 229.386489 53.753044 
z
" style="fill: #e6e6e6"/>
   </g>
   <g id="patch_17">
    <path d="M 227.008678 53.908746 
C 226.533439 53.944597 226.058417 53.983273 225.583637 54.024771 
C 225.108858 54.066269 224.634329 54.11059 224.160076 54.15773 
L 236.055304 173.830396 
L 227.008678 53.908746 
z
" style="fill: #f7cac9"/>
   </g>
   <g id="patch_18">
    <path d="M 224.160076 54.15773 
C 220.286263 54.542779 216.433429 55.115695 212.615186 55.874453 
C 208.796944 56.633212 205.017793 57.576918 201.291086 58.702238 
L 236.055304 173.830396 
L 224.160076 54.15773 
z
" style="fill: #92a8d1"/>
   </g>
   <g id="patch_19">
    <path d="M 201.291086 58.702238 
C 190.781203 61.875814 180.755211 66.473643 171.492806 72.36746 
C 162.230401 78.261277 153.818523 85.395761 146.491839 93.571881 
L 236.055304 173.830396 
L 201.291086 58.702238 
z
" style="fill: #f4dada"/>
   </g>
   <g id="patch_20">
    <path d="M 146.491839 93.571881 
C 125.564561 116.925409 114.579525 147.562224 115.899501 178.892656 
C 117.219477 210.223087 130.742518 239.827357 153.559955 261.337886 
L 236.055304 173.830396 
L 146.491839 93.571881 
z
" style="fill: #c4a29e"/>
   </g>
   <g id="patch_21">
    <path d="M 153.559955 261.337886 
C 167.840763 274.800736 185.202434 284.5653 204.124256 289.776296 
C 223.046078 294.987292 242.958979 295.488 262.118783 291.234564 
C 281.278587 286.981127 299.109066 278.101468 314.048444 265.373357 
C 328.987822 252.645246 340.586799 236.451479 347.829417 218.210473 
C 355.072035 199.969468 357.740475 180.229818 355.601006 160.720525 
C 353.461537 141.211233 346.578505 122.519037 335.554794 106.281191 
C 324.531084 90.043346 309.698233 76.748201 292.355454 67.560284 
C 275.012674 58.372366 255.681549 53.568 236.055296 53.568001 
L 236.055304 173.830396 
L 153.559955 261.337886 
z
" style="fill: #f9d5e5"/>
   </g>
   <g id="matplotlib.axis_1"/>
   <g id="matplotlib.axis_2"/>
   <g id="text_1">
    <!-- 8.7% -->
    <g transform="translate(168.474837 90.346276)scale(0.1 -0.1)">
     <defs>
      <path id="DejaVuSans-38" d="M 2034 2216 
Q 1584 2216 1326 1975 
Q 1069 1734 1069 1313 
Q 1069 891 1326 650 
Q 1584 409 2034 409 
Q 2484 409 2743 651 
Q 3003 894 3003 1313 
Q 3003 1734 2745 1975 
Q 2488 2216 2034 2216 
z
M 1403 2484 
Q 997 2584 770 2862 
Q 544 3141 544 3541 
Q 544 4100 942 4425 
Q 1341 4750 2034 4750 
Q 2731 4750 3128 4425 
Q 3525 4100 3525 3541 
Q 3525 3141 3298 2862 
Q 3072 2584 2669 2484 
Q 3125 2378 3379 2068 
Q 3634 1759 3634 1313 
Q 3634 634 3220 271 
Q 2806 -91 2034 -91 
Q 1263 -91 848 271 
Q 434 634 434 1313 
Q 434 1759 690 2068 
Q 947 2378 1403 2484 
z
M 1172 3481 
Q 1172 3119 1398 2916 
Q 1625 2713 2034 2713 
Q 2441 2713 2670 2916 
Q 2900 3119 2900 3481 
Q 2900 3844 2670 4047 
Q 2441 4250 2034 4250 
Q 1625 4250 1398 4047 
Q 1172 3844 1172 3481 
z
" transform="scale(0.015625)"/>
      <path id="DejaVuSans-2e" d="M 684 794 
L 1344 794 
L 1344 0 
L 684 0 
L 684 794 
z
" transform="scale(0.015625)"/>
      <path id="DejaVuSans-37" d="M 525 4666 
L 3525 4666 
L 3525 4397 
L 1831 0 
L 1172 0 
L 2766 4134 
L 525 4134 
L 525 4666 
z
" transform="scale(0.015625)"/>
      <path id="DejaVuSans-25" d="M 4653 2053 
Q 4381 2053 4226 1822 
Q 4072 1591 4072 1178 
Q 4072 772 4226 539 
Q 4381 306 4653 306 
Q 4919 306 5073 539 
Q 5228 772 5228 1178 
Q 5228 1588 5073 1820 
Q 4919 2053 4653 2053 
z
M 4653 2450 
Q 5147 2450 5437 2106 
Q 5728 1763 5728 1178 
Q 5728 594 5436 251 
Q 5144 -91 4653 -91 
Q 4153 -91 3862 251 
Q 3572 594 3572 1178 
Q 3572 1766 3864 2108 
Q 4156 2450 4653 2450 
z
M 1428 4353 
Q 1159 4353 1004 4120 
Q 850 3888 850 3481 
Q 850 3069 1003 2837 
Q 1156 2606 1428 2606 
Q 1700 2606 1854 2837 
Q 2009 3069 2009 3481 
Q 2009 3884 1853 4118 
Q 1697 4353 1428 4353 
z
M 4250 4750 
L 4750 4750 
L 1831 -91 
L 1331 -91 
L 4250 4750 
z
M 1428 4750 
Q 1922 4750 2215 4408 
Q 2509 4066 2509 3481 
Q 2509 2891 2217 2550 
Q 1925 2209 1428 2209 
Q 931 2209 642 2551 
Q 353 2894 353 3481 
Q 353 4063 643 4406 
Q 934 4750 1428 4750 
z
" transform="scale(0.015625)"/>
     </defs>
     <use xlink:href="#DejaVuSans-38"/>
     <use xlink:href="#DejaVuSans-2e" x="63.623047"/>
     <use xlink:href="#DejaVuSans-37" x="95.410156"/>
     <use xlink:href="#DejaVuSans-25" x="159.033203"/>
    </g>
   </g>
   <g id="text_2">
    <!-- 24.6% -->
    <g transform="translate(118.039278 180.892692)scale(0.1 -0.1)">
     <defs>
      <path id="DejaVuSans-32" d="M 1228 531 
L 3431 531 
L 3431 0 
L 469 0 
L 469 531 
Q 828 903 1448 1529 
Q 2069 2156 2228 2338 
Q 2531 2678 2651 2914 
Q 2772 3150 2772 3378 
Q 2772 3750 2511 3984 
Q 2250 4219 1831 4219 
Q 1534 4219 1204 4116 
Q 875 4013 500 3803 
L 500 4441 
Q 881 4594 1212 4672 
Q 1544 4750 1819 4750 
Q 2544 4750 2975 4387 
Q 3406 4025 3406 3419 
Q 3406 3131 3298 2873 
Q 3191 2616 2906 2266 
Q 2828 2175 2409 1742 
Q 1991 1309 1228 531 
z
" transform="scale(0.015625)"/>
      <path id="DejaVuSans-34" d="M 2419 4116 
L 825 1625 
L 2419 1625 
L 2419 4116 
z
M 2253 4666 
L 3047 4666 
L 3047 1625 
L 3713 1625 
L 3713 1100 
L 3047 1100 
L 3047 0 
L 2419 0 
L 2419 1100 
L 313 1100 
L 313 1709 
L 2253 4666 
z
" transform="scale(0.015625)"/>
      <path id="DejaVuSans-36" d="M 2113 2584 
Q 1688 2584 1439 2293 
Q 1191 2003 1191 1497 
Q 1191 994 1439 701 
Q 1688 409 2113 409 
Q 2538 409 2786 701 
Q 3034 994 3034 1497 
Q 3034 2003 2786 2293 
Q 2538 2584 2113 2584 
z
M 3366 4563 
L 3366 3988 
Q 3128 4100 2886 4159 
Q 2644 4219 2406 4219 
Q 1781 4219 1451 3797 
Q 1122 3375 1075 2522 
Q 1259 2794 1537 2939 
Q 1816 3084 2150 3084 
Q 2853 3084 3261 2657 
Q 3669 2231 3669 1497 
Q 3669 778 3244 343 
Q 2819 -91 2113 -91 
Q 1303 -91 875 529 
Q 447 1150 447 2328 
Q 447 3434 972 4092 
Q 1497 4750 2381 4750 
Q 2619 4750 2861 4703 
Q 3103 4656 3366 4563 
z
" transform="scale(0.015625)"/>
     </defs>
     <use xlink:href="#DejaVuSans-32"/>
     <use xlink:href="#DejaVuSans-34" x="63.623047"/>
     <use xlink:href="#DejaVuSans-2e" x="127.246094"/>
     <use xlink:href="#DejaVuSans-36" x="159.033203"/>
     <use xlink:href="#DejaVuSans-25" x="222.65625"/>
    </g>
   </g>
   <g id="text_3">
    <!-- 62.0% -->
    <g transform="translate(315.179706 214.312837)scale(0.1 -0.1)">
     <defs>
      <path id="DejaVuSans-30" d="M 2034 4250 
Q 1547 4250 1301 3770 
Q 1056 3291 1056 2328 
Q 1056 1369 1301 889 
Q 1547 409 2034 409 
Q 2525 409 2770 889 
Q 3016 1369 3016 2328 
Q 3016 3291 2770 3770 
Q 2525 4250 2034 4250 
z
M 2034 4750 
Q 2819 4750 3233 4129 
Q 3647 3509 3647 2328 
Q 3647 1150 3233 529 
Q 2819 -91 2034 -91 
Q 1250 -91 836 529 
Q 422 1150 422 2328 
Q 422 3509 836 4129 
Q 1250 4750 2034 4750 
z
" transform="scale(0.015625)"/>
     </defs>
     <use xlink:href="#DejaVuSans-36"/>
     <use xlink:href="#DejaVuSans-32" x="63.623047"/>
     <use xlink:href="#DejaVuSans-2e" x="127.246094"/>
     <use xlink:href="#DejaVuSans-30" x="159.033203"/>
     <use xlink:href="#DejaVuSans-25" x="222.65625"/>
    </g>
   </g>
   <g id="text_4">
    <!-- envr_score -->
    <g transform="translate(193.589062 35.472)scale(0.14 -0.14)">
     <defs>
      <path id="DejaVuSans-Bold-65" d="M 4031 1759 
L 4031 1441 
L 1416 1441 
Q 1456 1047 1700 850 
Q 1944 653 2381 653 
Q 2734 653 3104 758 
Q 3475 863 3866 1075 
L 3866 213 
Q 3469 63 3072 -14 
Q 2675 -91 2278 -91 
Q 1328 -91 801 392 
Q 275 875 275 1747 
Q 275 2603 792 3093 
Q 1309 3584 2216 3584 
Q 3041 3584 3536 3087 
Q 4031 2591 4031 1759 
z
M 2881 2131 
Q 2881 2450 2695 2645 
Q 2509 2841 2209 2841 
Q 1884 2841 1681 2658 
Q 1478 2475 1428 2131 
L 2881 2131 
z
" transform="scale(0.015625)"/>
      <path id="DejaVuSans-Bold-6e" d="M 4056 2131 
L 4056 0 
L 2931 0 
L 2931 347 
L 2931 1631 
Q 2931 2084 2911 2256 
Q 2891 2428 2841 2509 
Q 2775 2619 2662 2680 
Q 2550 2741 2406 2741 
Q 2056 2741 1856 2470 
Q 1656 2200 1656 1722 
L 1656 0 
L 538 0 
L 538 3500 
L 1656 3500 
L 1656 2988 
Q 1909 3294 2193 3439 
Q 2478 3584 2822 3584 
Q 3428 3584 3742 3212 
Q 4056 2841 4056 2131 
z
" transform="scale(0.015625)"/>
      <path id="DejaVuSans-Bold-76" d="M 97 3500 
L 1216 3500 
L 2088 1081 
L 2956 3500 
L 4078 3500 
L 2700 0 
L 1472 0 
L 97 3500 
z
" transform="scale(0.015625)"/>
      <path id="DejaVuSans-Bold-72" d="M 3138 2547 
Q 2991 2616 2845 2648 
Q 2700 2681 2553 2681 
Q 2122 2681 1889 2404 
Q 1656 2128 1656 1613 
L 1656 0 
L 538 0 
L 538 3500 
L 1656 3500 
L 1656 2925 
Q 1872 3269 2151 3426 
Q 2431 3584 2822 3584 
Q 2878 3584 2943 3579 
Q 3009 3575 3134 3559 
L 3138 2547 
z
" transform="scale(0.015625)"/>
      <path id="DejaVuSans-Bold-5f" d="M 3200 -916 
L 3200 -1509 
L 0 -1509 
L 0 -916 
L 3200 -916 
z
" transform="scale(0.015625)"/>
      <path id="DejaVuSans-Bold-73" d="M 3272 3391 
L 3272 2541 
Q 2913 2691 2578 2766 
Q 2244 2841 1947 2841 
Q 1628 2841 1473 2761 
Q 1319 2681 1319 2516 
Q 1319 2381 1436 2309 
Q 1553 2238 1856 2203 
L 2053 2175 
Q 2913 2066 3209 1816 
Q 3506 1566 3506 1031 
Q 3506 472 3093 190 
Q 2681 -91 1863 -91 
Q 1516 -91 1145 -36 
Q 775 19 384 128 
L 384 978 
Q 719 816 1070 734 
Q 1422 653 1784 653 
Q 2113 653 2278 743 
Q 2444 834 2444 1013 
Q 2444 1163 2330 1236 
Q 2216 1309 1875 1350 
L 1678 1375 
Q 931 1469 631 1722 
Q 331 1975 331 2491 
Q 331 3047 712 3315 
Q 1094 3584 1881 3584 
Q 2191 3584 2531 3537 
Q 2872 3491 3272 3391 
z
" transform="scale(0.015625)"/>
      <path id="DejaVuSans-Bold-63" d="M 3366 3391 
L 3366 2478 
Q 3138 2634 2908 2709 
Q 2678 2784 2431 2784 
Q 1963 2784 1702 2511 
Q 1441 2238 1441 1747 
Q 1441 1256 1702 982 
Q 1963 709 2431 709 
Q 2694 709 2930 787 
Q 3166 866 3366 1019 
L 3366 103 
Q 3103 6 2833 -42 
Q 2563 -91 2291 -91 
Q 1344 -91 809 395 
Q 275 881 275 1747 
Q 275 2613 809 3098 
Q 1344 3584 2291 3584 
Q 2566 3584 2833 3536 
Q 3100 3488 3366 3391 
z
" transform="scale(0.015625)"/>
      <path id="DejaVuSans-Bold-6f" d="M 2203 2784 
Q 1831 2784 1636 2517 
Q 1441 2250 1441 1747 
Q 1441 1244 1636 976 
Q 1831 709 2203 709 
Q 2569 709 2762 976 
Q 2956 1244 2956 1747 
Q 2956 2250 2762 2517 
Q 2569 2784 2203 2784 
z
M 2203 3584 
Q 3106 3584 3614 3096 
Q 4122 2609 4122 1747 
Q 4122 884 3614 396 
Q 3106 -91 2203 -91 
Q 1297 -91 786 396 
Q 275 884 275 1747 
Q 275 2609 786 3096 
Q 1297 3584 2203 3584 
z
" transform="scale(0.015625)"/>
     </defs>
     <use xlink:href="#DejaVuSans-Bold-65"/>
     <use xlink:href="#DejaVuSans-Bold-6e" x="67.822266"/>
     <use xlink:href="#DejaVuSans-Bold-76" x="139.013672"/>
     <use xlink:href="#DejaVuSans-Bold-72" x="204.199219"/>
     <use xlink:href="#DejaVuSans-Bold-5f" x="253.515625"/>
     <use xlink:href="#DejaVuSans-Bold-73" x="303.515625"/>
     <use xlink:href="#DejaVuSans-Bold-63" x="363.037109"/>
     <use xlink:href="#DejaVuSans-Bold-6f" x="422.314453"/>
     <use xlink:href="#DejaVuSans-Bold-72" x="491.015625"/>
     <use xlink:href="#DejaVuSans-Bold-65" x="540.332031"/>
    </g>
   </g>
   <g id="legend_1">
    <g id="patch_22">
     <path d="M 64.6 196.25325 
L 112.503125 196.25325 
Q 114.503125 196.25325 114.503125 194.25325 
L 114.503125 48.472 
Q 114.503125 46.472 112.503125 46.472 
L 64.6 46.472 
Q 62.6 46.472 62.6 48.472 
L 62.6 194.25325 
Q 62.6 196.25325 64.6 196.25325 
z
" style="fill: #ffffff; opacity: 0.8; stroke: #cccccc; stroke-linejoin: miter"/>
    </g>
    <g id="patch_23">
     <path d="M 66.6 58.070437 
L 86.6 58.070437 
L 86.6 51.070437 
L 66.6 51.070437 
z
" style="fill: #ff9999"/>
    </g>
    <g id="text_5">
     <!-- 0.5 -->
     <g transform="translate(94.6 58.070437)scale(0.1 -0.1)">
      <defs>
       <path id="DejaVuSans-35" d="M 691 4666 
L 3169 4666 
L 3169 4134 
L 1269 4134 
L 1269 2991 
Q 1406 3038 1543 3061 
Q 1681 3084 1819 3084 
Q 2600 3084 3056 2656 
Q 3513 2228 3513 1497 
Q 3513 744 3044 326 
Q 2575 -91 1722 -91 
Q 1428 -91 1123 -41 
Q 819 9 494 109 
L 494 744 
Q 775 591 1075 516 
Q 1375 441 1709 441 
Q 2250 441 2565 725 
Q 2881 1009 2881 1497 
Q 2881 1984 2565 2268 
Q 2250 2553 1709 2553 
Q 1456 2553 1204 2497 
Q 953 2441 691 2322 
L 691 4666 
z
" transform="scale(0.015625)"/>
      </defs>
      <use xlink:href="#DejaVuSans-30"/>
      <use xlink:href="#DejaVuSans-2e" x="63.623047"/>
      <use xlink:href="#DejaVuSans-35" x="95.410156"/>
     </g>
    </g>
    <g id="patch_24">
     <path d="M 66.6 72.748562 
L 86.6 72.748562 
L 86.6 65.748562 
L 66.6 65.748562 
z
" style="fill: #66b3ff"/>
    </g>
    <g id="text_6">
     <!-- 1.0 -->
     <g transform="translate(94.6 72.748562)scale(0.1 -0.1)">
      <defs>
       <path id="DejaVuSans-31" d="M 794 531 
L 1825 531 
L 1825 4091 
L 703 3866 
L 703 4441 
L 1819 4666 
L 2450 4666 
L 2450 531 
L 3481 531 
L 3481 0 
L 794 0 
L 794 531 
z
" transform="scale(0.015625)"/>
      </defs>
      <use xlink:href="#DejaVuSans-31"/>
      <use xlink:href="#DejaVuSans-2e" x="63.623047"/>
      <use xlink:href="#DejaVuSans-30" x="95.410156"/>
     </g>
    </g>
    <g id="patch_25">
     <path d="M 66.6 87.426688 
L 86.6 87.426688 
L 86.6 80.426688 
L 66.6 80.426688 
z
" style="fill: #99ff99"/>
    </g>
    <g id="text_7">
     <!-- 1.5 -->
     <g transform="translate(94.6 87.426688)scale(0.1 -0.1)">
      <use xlink:href="#DejaVuSans-31"/>
      <use xlink:href="#DejaVuSans-2e" x="63.623047"/>
      <use xlink:href="#DejaVuSans-35" x="95.410156"/>
     </g>
    </g>
    <g id="patch_26">
     <path d="M 66.6 102.104812 
L 86.6 102.104812 
L 86.6 95.104812 
L 66.6 95.104812 
z
" style="fill: #ffcc99"/>
    </g>
    <g id="text_8">
     <!-- 2.0 -->
     <g transform="translate(94.6 102.104812)scale(0.1 -0.1)">
      <use xlink:href="#DejaVuSans-32"/>
      <use xlink:href="#DejaVuSans-2e" x="63.623047"/>
      <use xlink:href="#DejaVuSans-30" x="95.410156"/>
     </g>
    </g>
    <g id="patch_27">
     <path d="M 66.6 116.782938 
L 86.6 116.782938 
L 86.6 109.782938 
L 66.6 109.782938 
z
" style="fill: #e6e6e6"/>
    </g>
    <g id="text_9">
     <!-- 2.5 -->
     <g transform="translate(94.6 116.782938)scale(0.1 -0.1)">
      <use xlink:href="#DejaVuSans-32"/>
      <use xlink:href="#DejaVuSans-2e" x="63.623047"/>
      <use xlink:href="#DejaVuSans-35" x="95.410156"/>
     </g>
    </g>
    <g id="patch_28">
     <path d="M 66.6 131.461062 
L 86.6 131.461062 
L 86.6 124.461062 
L 66.6 124.461062 
z
" style="fill: #f7cac9"/>
    </g>
    <g id="text_10">
     <!-- 3.0 -->
     <g transform="translate(94.6 131.461062)scale(0.1 -0.1)">
      <defs>
       <path id="DejaVuSans-33" d="M 2597 2516 
Q 3050 2419 3304 2112 
Q 3559 1806 3559 1356 
Q 3559 666 3084 287 
Q 2609 -91 1734 -91 
Q 1441 -91 1130 -33 
Q 819 25 488 141 
L 488 750 
Q 750 597 1062 519 
Q 1375 441 1716 441 
Q 2309 441 2620 675 
Q 2931 909 2931 1356 
Q 2931 1769 2642 2001 
Q 2353 2234 1838 2234 
L 1294 2234 
L 1294 2753 
L 1863 2753 
Q 2328 2753 2575 2939 
Q 2822 3125 2822 3475 
Q 2822 3834 2567 4026 
Q 2313 4219 1838 4219 
Q 1578 4219 1281 4162 
Q 984 4106 628 3988 
L 628 4550 
Q 988 4650 1302 4700 
Q 1616 4750 1894 4750 
Q 2613 4750 3031 4423 
Q 3450 4097 3450 3541 
Q 3450 3153 3228 2886 
Q 3006 2619 2597 2516 
z
" transform="scale(0.015625)"/>
      </defs>
      <use xlink:href="#DejaVuSans-33"/>
      <use xlink:href="#DejaVuSans-2e" x="63.623047"/>
      <use xlink:href="#DejaVuSans-30" x="95.410156"/>
     </g>
    </g>
    <g id="patch_29">
     <path d="M 66.6 146.139187 
L 86.6 146.139187 
L 86.6 139.139187 
L 66.6 139.139187 
z
" style="fill: #92a8d1"/>
    </g>
    <g id="text_11">
     <!-- 3.5 -->
     <g transform="translate(94.6 146.139187)scale(0.1 -0.1)">
      <use xlink:href="#DejaVuSans-33"/>
      <use xlink:href="#DejaVuSans-2e" x="63.623047"/>
      <use xlink:href="#DejaVuSans-35" x="95.410156"/>
     </g>
    </g>
    <g id="patch_30">
     <path d="M 66.6 160.817312 
L 86.6 160.817312 
L 86.6 153.817312 
L 66.6 153.817312 
z
" style="fill: #f4dada"/>
    </g>
    <g id="text_12">
     <!-- 4.0 -->
     <g transform="translate(94.6 160.817312)scale(0.1 -0.1)">
      <use xlink:href="#DejaVuSans-34"/>
      <use xlink:href="#DejaVuSans-2e" x="63.623047"/>
      <use xlink:href="#DejaVuSans-30" x="95.410156"/>
     </g>
    </g>
    <g id="patch_31">
     <path d="M 66.6 175.495437 
L 86.6 175.495437 
L 86.6 168.495437 
L 66.6 168.495437 
z
" style="fill: #c4a29e"/>
    </g>
    <g id="text_13">
     <!-- 4.5 -->
     <g transform="translate(94.6 175.495437)scale(0.1 -0.1)">
      <use xlink:href="#DejaVuSans-34"/>
      <use xlink:href="#DejaVuSans-2e" x="63.623047"/>
      <use xlink:href="#DejaVuSans-35" x="95.410156"/>
     </g>
    </g>
    <g id="patch_32">
     <path d="M 66.6 190.173562 
L 86.6 190.173562 
L 86.6 183.173562 
L 66.6 183.173562 
z
" style="fill: #f9d5e5"/>
    </g>
    <g id="text_14">
     <!-- 5.0 -->
     <g transform="translate(94.6 190.173562)scale(0.1 -0.1)">
      <use xlink:href="#DejaVuSans-35"/>
      <use xlink:href="#DejaVuSans-2e" x="63.623047"/>
      <use xlink:href="#DejaVuSans-30" x="95.410156"/>
     </g>
    </g>
   </g>
  </g>
 </g>
</svg>
