<?xml version="1.0" encoding="utf-8" standalone="no"?>
<!DOCTYPE svg PUBLIC "-//W3C//DTD SVG 1.1//EN"
  "http://www.w3.org/Graphics/SVG/1.1/DTD/svg11.dtd">
<svg xmlns:xlink="http://www.w3.org/1999/xlink" width="460.8pt" height="345.6pt" viewBox="0 0 460.8 345.6" xmlns="http://www.w3.org/2000/svg" version="1.1">
 <metadata>
  <rdf:RDF xmlns:dc="http://purl.org/dc/elements/1.1/" xmlns:cc="http://creativecommons.org/ns#" xmlns:rdf="http://www.w3.org/1999/02/22-rdf-syntax-ns#">
   <cc:Work>
    <dc:type rdf:resource="http://purl.org/dc/dcmitype/StillImage"/>
    <dc:date>2023-05-14T11:59:27.605548</dc:date>
    <dc:format>image/svg+xml</dc:format>
    <dc:creator>
     <cc:Agent>
      <dc:title>Matplotlib v3.5.3, https://matplotlib.org/</dc:title>
     </cc:Agent>
    </dc:creator>
   </cc:Work>
  </rdf:RDF>
 </metadata>
 <defs>
  <style type="text/css">*{stroke-linejoin: round; stroke-linecap: butt}</style>
 </defs>
 <g id="figure_1">
  <g id="patch_1">
   <path d="M 0 345.6 
L 460.8 345.6 
L 460.8 0 
L 0 0 
z
" style="fill: #ffffff"/>
  </g>
  <g id="axes_1">
   <g id="patch_2">
    <path d="M 234.04673 55.980632 
C 233.198428 55.980632 232.35015 55.98958 231.502037 56.007475 
C 230.653923 56.025369 229.806023 56.05221 228.958476 56.087991 
L 234.04673 176.612225 
L 234.04673 55.980632 
z
" style="fill: #4c2e2e; opacity: 0.5; stroke: #4c2e2e; stroke-linejoin: miter"/>
   </g>
   <g id="patch_3">
    <path d="M 228.958476 56.087991 
C 228.887848 56.090973 228.817222 56.094017 228.746599 56.097123 
C 228.675976 56.100229 228.605356 56.103397 228.534739 56.106627 
L 234.04673 176.612225 
L 228.958476 56.087991 
z
" style="fill: #1f364c; opacity: 0.5; stroke: #1f364c; stroke-linejoin: miter"/>
   </g>
   <g id="patch_4">
    <path d="M 228.534739 56.106627 
C 228.464121 56.109857 228.393507 56.113149 228.322895 56.116503 
C 228.252284 56.119857 228.181675 56.123274 228.11107 56.126752 
L 234.04673 176.612225 
L 228.534739 56.106627 
z
" style="fill: #2e4c2e; opacity: 0.5; stroke: #2e4c2e; stroke-linejoin: miter"/>
   </g>
   <g id="patch_5">
    <path d="M 228.11107 56.126752 
C 227.969859 56.133709 227.82866 56.140914 227.687474 56.148367 
C 227.546288 56.15582 227.405116 56.163521 227.263957 56.171471 
L 234.04673 176.612225 
L 228.11107 56.126752 
z
" style="fill: #4c3d2e; opacity: 0.5; stroke: #4c3d2e; stroke-linejoin: miter"/>
   </g>
   <g id="patch_6">
    <path d="M 227.263957 56.171471 
C 226.346416 56.223143 225.429495 56.285299 224.513374 56.357926 
C 223.597253 56.430553 222.681992 56.513646 221.76777 56.60719 
L 234.04673 176.612225 
L 227.263957 56.171471 
z
" style="fill: #454545; opacity: 0.5; stroke: #454545; stroke-linejoin: miter"/>
   </g>
   <g id="patch_7">
    <path d="M 221.76777 56.60719 
C 220.57224 56.729517 219.378605 56.869703 218.187264 57.0277 
C 216.995923 57.185697 215.807009 57.361489 214.620922 57.555015 
L 234.04673 176.612225 
L 221.76777 56.60719 
z
" style="fill: #4a3d3c; opacity: 0.5; stroke: #4a3d3c; stroke-linejoin: miter"/>
   </g>
   <g id="patch_8">
    <path d="M 214.620922 57.555015 
C 208.478228 58.557279 202.422303 60.033436 196.507412 61.970257 
C 190.592521 63.907078 184.836383 66.298761 179.290579 69.123876 
L 234.04673 176.612225 
L 214.620922 57.555015 
z
" style="fill: #2c323f; opacity: 0.5; stroke: #2c323f; stroke-linejoin: miter"/>
   </g>
   <g id="patch_9">
    <path d="M 179.290579 69.123876 
C 161.820767 78.023255 146.781093 91.048896 135.478401 107.068959 
C 124.175708 123.089023 116.947137 141.625658 114.420799 161.068161 
L 234.04673 176.612225 
L 179.290579 69.123876 
z
" style="fill: #494141; opacity: 0.5; stroke: #494141; stroke-linejoin: miter"/>
   </g>
   <g id="patch_10">
    <path d="M 114.420799 161.068161 
C 112.15287 178.521971 113.73203 196.2625 119.047152 213.04131 
C 124.362273 229.82012 133.285681 245.23417 145.189417 258.198739 
C 157.093153 271.163308 171.691279 281.366976 187.956493 288.091691 
C 204.221708 294.816405 221.763306 297.900632 239.346849 297.127327 
L 234.04673 176.612225 
L 114.420799 161.068161 
z
" style="fill: #3b312f; opacity: 0.5; stroke: #3b312f; stroke-linejoin: miter"/>
   </g>
   <g id="patch_11">
    <path d="M 239.346849 297.127327 
C 270.839423 295.742319 300.567602 282.066742 322.111017 259.054098 
C 343.654431 236.041455 355.341866 205.476934 354.649197 173.96153 
C 353.956527 142.446126 340.937485 112.424624 318.403783 90.380741 
C 295.870081 68.336859 265.569755 55.980635 234.04674 55.980632 
L 234.04673 176.612225 
L 239.346849 297.127327 
z
" style="fill: #4b4045; opacity: 0.5; stroke: #4b4045; stroke-linejoin: miter"/>
   </g>
   <g id="patch_12">
    <path d="M 236.459361 53.568 
C 235.61106 53.568 234.762781 53.576948 233.914668 53.594843 
C 233.066555 53.612738 232.218655 53.639578 231.371108 53.675359 
L 236.459361 174.199593 
L 236.459361 53.568 
z
" style="fill: #ff9999"/>
   </g>
   <g id="patch_13">
    <path d="M 231.371108 53.675359 
C 231.30048 53.678341 231.229854 53.681385 231.159231 53.684491 
C 231.088608 53.687597 231.017988 53.690765 230.947371 53.693995 
L 236.459361 174.199593 
L 231.371108 53.675359 
z
" style="fill: #66b3ff"/>
   </g>
   <g id="patch_14">
    <path d="M 230.947371 53.693995 
C 230.876753 53.697225 230.806139 53.700517 230.735527 53.703871 
C 230.664916 53.707226 230.594307 53.710642 230.523702 53.71412 
L 236.459361 174.199593 
L 230.947371 53.693995 
z
" style="fill: #99ff99"/>
   </g>
   <g id="patch_15">
    <path d="M 230.523702 53.71412 
C 230.38249 53.721077 230.241292 53.728282 230.100106 53.735735 
C 229.95892 53.743188 229.817748 53.750889 229.676589 53.758839 
L 236.459361 174.199593 
L 230.523702 53.71412 
z
" style="fill: #ffcc99"/>
   </g>
   <g id="patch_16">
    <path d="M 229.676589 53.758839 
C 228.759048 53.810511 227.842127 53.872667 226.926006 53.945294 
C 226.009885 54.017921 225.094624 54.101015 224.180402 54.194558 
L 236.459361 174.199593 
L 229.676589 53.758839 
z
" style="fill: #e6e6e6"/>
   </g>
   <g id="patch_17">
    <path d="M 224.180402 54.194558 
C 222.984872 54.316885 221.791237 54.457071 220.599896 54.615068 
C 219.408555 54.773065 218.219641 54.948857 217.033554 55.142383 
L 236.459361 174.199593 
L 224.180402 54.194558 
z
" style="fill: #f7cac9"/>
   </g>
   <g id="patch_18">
    <path d="M 217.033554 55.142383 
C 210.89086 56.144647 204.834935 57.620804 198.920044 59.557625 
C 193.005153 61.494446 187.249015 63.886129 181.703211 66.711244 
L 236.459361 174.199593 
L 217.033554 55.142383 
z
" style="fill: #92a8d1"/>
   </g>
   <g id="patch_19">
    <path d="M 181.703211 66.711244 
C 164.233399 75.610624 149.193725 88.636264 137.891033 104.656327 
C 126.58834 120.676391 119.359769 139.213026 116.833431 158.655529 
L 236.459361 174.199593 
L 181.703211 66.711244 
z
" style="fill: #f4dada"/>
   </g>
   <g id="patch_20">
    <path d="M 116.833431 158.655529 
C 114.565502 176.109339 116.144662 193.849868 121.459783 210.628678 
C 126.774905 227.407488 135.698313 242.821538 147.602049 255.786107 
C 159.505785 268.750676 174.103911 278.954344 190.369125 285.679059 
C 206.634339 292.403773 224.175938 295.488 241.759481 294.714695 
L 236.459361 174.199593 
L 116.833431 158.655529 
z
" style="fill: #c4a29e"/>
   </g>
   <g id="patch_21">
    <path d="M 241.759481 294.714695 
C 273.252055 293.329687 302.980234 279.65411 324.523649 256.641466 
C 346.067063 233.628823 357.754498 203.064302 357.061828 171.548898 
C 356.369158 140.033495 343.350117 110.011992 320.816415 87.96811 
C 298.282713 65.924227 267.982387 53.568003 236.459372 53.568 
L 236.459361 174.199593 
L 241.759481 294.714695 
z
" style="fill: #f9d5e5"/>
   </g>
   <g id="matplotlib.axis_1"/>
   <g id="matplotlib.axis_2"/>
   <g id="text_1">
    <!-- 4.9% -->
    <g transform="translate(191.848598 79.513295)scale(0.1 -0.1)">
     <defs>
      <path id="DejaVuSans-34" d="M 2419 4116 
L 825 1625 
L 2419 1625 
L 2419 4116 
z
M 2253 4666 
L 3047 4666 
L 3047 1625 
L 3713 1625 
L 3713 1100 
L 3047 1100 
L 3047 0 
L 2419 0 
L 2419 1100 
L 313 1100 
L 313 1709 
L 2253 4666 
z
" transform="scale(0.015625)"/>
      <path id="DejaVuSans-2e" d="M 684 794 
L 1344 794 
L 1344 0 
L 684 0 
L 684 794 
z
" transform="scale(0.015625)"/>
      <path id="DejaVuSans-39" d="M 703 97 
L 703 672 
Q 941 559 1184 500 
Q 1428 441 1663 441 
Q 2288 441 2617 861 
Q 2947 1281 2994 2138 
Q 2813 1869 2534 1725 
Q 2256 1581 1919 1581 
Q 1219 1581 811 2004 
Q 403 2428 403 3163 
Q 403 3881 828 4315 
Q 1253 4750 1959 4750 
Q 2769 4750 3195 4129 
Q 3622 3509 3622 2328 
Q 3622 1225 3098 567 
Q 2575 -91 1691 -91 
Q 1453 -91 1209 -44 
Q 966 3 703 97 
z
M 1959 2075 
Q 2384 2075 2632 2365 
Q 2881 2656 2881 3163 
Q 2881 3666 2632 3958 
Q 2384 4250 1959 4250 
Q 1534 4250 1286 3958 
Q 1038 3666 1038 3163 
Q 1038 2656 1286 2365 
Q 1534 2075 1959 2075 
z
" transform="scale(0.015625)"/>
      <path id="DejaVuSans-25" d="M 4653 2053 
Q 4381 2053 4226 1822 
Q 4072 1591 4072 1178 
Q 4072 772 4226 539 
Q 4381 306 4653 306 
Q 4919 306 5073 539 
Q 5228 772 5228 1178 
Q 5228 1588 5073 1820 
Q 4919 2053 4653 2053 
z
M 4653 2450 
Q 5147 2450 5437 2106 
Q 5728 1763 5728 1178 
Q 5728 594 5436 251 
Q 5144 -91 4653 -91 
Q 4153 -91 3862 251 
Q 3572 594 3572 1178 
Q 3572 1766 3864 2108 
Q 4156 2450 4653 2450 
z
M 1428 4353 
Q 1159 4353 1004 4120 
Q 850 3888 850 3481 
Q 850 3069 1003 2837 
Q 1156 2606 1428 2606 
Q 1700 2606 1854 2837 
Q 2009 3069 2009 3481 
Q 2009 3884 1853 4118 
Q 1697 4353 1428 4353 
z
M 4250 4750 
L 4750 4750 
L 1831 -91 
L 1331 -91 
L 4250 4750 
z
M 1428 4750 
Q 1922 4750 2215 4408 
Q 2509 4066 2509 3481 
Q 2509 2891 2217 2550 
Q 1925 2209 1428 2209 
Q 931 2209 642 2551 
Q 353 2894 353 3481 
Q 353 4063 643 4406 
Q 934 4750 1428 4750 
z
" transform="scale(0.015625)"/>
     </defs>
     <use xlink:href="#DejaVuSans-34"/>
     <use xlink:href="#DejaVuSans-2e" x="63.623047"/>
     <use xlink:href="#DejaVuSans-39" x="95.410156"/>
     <use xlink:href="#DejaVuSans-25" x="159.033203"/>
    </g>
   </g>
   <g id="text_2">
    <!-- 15.4% -->
    <g transform="translate(136.792688 117.847192)scale(0.1 -0.1)">
     <defs>
      <path id="DejaVuSans-31" d="M 794 531 
L 1825 531 
L 1825 4091 
L 703 3866 
L 703 4441 
L 1819 4666 
L 2450 4666 
L 2450 531 
L 3481 531 
L 3481 0 
L 794 0 
L 794 531 
z
" transform="scale(0.015625)"/>
      <path id="DejaVuSans-35" d="M 691 4666 
L 3169 4666 
L 3169 4134 
L 1269 4134 
L 1269 2991 
Q 1406 3038 1543 3061 
Q 1681 3084 1819 3084 
Q 2600 3084 3056 2656 
Q 3513 2228 3513 1497 
Q 3513 744 3044 326 
Q 2575 -91 1722 -91 
Q 1428 -91 1123 -41 
Q 819 9 494 109 
L 494 744 
Q 775 591 1075 516 
Q 1375 441 1709 441 
Q 2250 441 2565 725 
Q 2881 1009 2881 1497 
Q 2881 1984 2565 2268 
Q 2250 2553 1709 2553 
Q 1456 2553 1204 2497 
Q 953 2441 691 2322 
L 691 4666 
z
" transform="scale(0.015625)"/>
     </defs>
     <use xlink:href="#DejaVuSans-31"/>
     <use xlink:href="#DejaVuSans-35" x="63.623047"/>
     <use xlink:href="#DejaVuSans-2e" x="127.246094"/>
     <use xlink:href="#DejaVuSans-34" x="159.033203"/>
     <use xlink:href="#DejaVuSans-25" x="222.65625"/>
    </g>
   </g>
   <g id="text_3">
    <!-- 27.8% -->
    <g transform="translate(145.047052 246.307505)scale(0.1 -0.1)">
     <defs>
      <path id="DejaVuSans-32" d="M 1228 531 
L 3431 531 
L 3431 0 
L 469 0 
L 469 531 
Q 828 903 1448 1529 
Q 2069 2156 2228 2338 
Q 2531 2678 2651 2914 
Q 2772 3150 2772 3378 
Q 2772 3750 2511 3984 
Q 2250 4219 1831 4219 
Q 1534 4219 1204 4116 
Q 875 4013 500 3803 
L 500 4441 
Q 881 4594 1212 4672 
Q 1544 4750 1819 4750 
Q 2544 4750 2975 4387 
Q 3406 4025 3406 3419 
Q 3406 3131 3298 2873 
Q 3191 2616 2906 2266 
Q 2828 2175 2409 1742 
Q 1991 1309 1228 531 
z
" transform="scale(0.015625)"/>
      <path id="DejaVuSans-37" d="M 525 4666 
L 3525 4666 
L 3525 4397 
L 1831 0 
L 1172 0 
L 2766 4134 
L 525 4134 
L 525 4666 
z
" transform="scale(0.015625)"/>
      <path id="DejaVuSans-38" d="M 2034 2216 
Q 1584 2216 1326 1975 
Q 1069 1734 1069 1313 
Q 1069 891 1326 650 
Q 1584 409 2034 409 
Q 2484 409 2743 651 
Q 3003 894 3003 1313 
Q 3003 1734 2745 1975 
Q 2488 2216 2034 2216 
z
M 1403 2484 
Q 997 2584 770 2862 
Q 544 3141 544 3541 
Q 544 4100 942 4425 
Q 1341 4750 2034 4750 
Q 2731 4750 3128 4425 
Q 3525 4100 3525 3541 
Q 3525 3141 3298 2862 
Q 3072 2584 2669 2484 
Q 3125 2378 3379 2068 
Q 3634 1759 3634 1313 
Q 3634 634 3220 271 
Q 2806 -91 2034 -91 
Q 1263 -91 848 271 
Q 434 634 434 1313 
Q 434 1759 690 2068 
Q 947 2378 1403 2484 
z
M 1172 3481 
Q 1172 3119 1398 2916 
Q 1625 2713 2034 2713 
Q 2441 2713 2670 2916 
Q 2900 3119 2900 3481 
Q 2900 3844 2670 4047 
Q 2441 4250 2034 4250 
Q 1625 4250 1398 4047 
Q 1172 3844 1172 3481 
z
" transform="scale(0.015625)"/>
     </defs>
     <use xlink:href="#DejaVuSans-32"/>
     <use xlink:href="#DejaVuSans-37" x="63.623047"/>
     <use xlink:href="#DejaVuSans-2e" x="127.246094"/>
     <use xlink:href="#DejaVuSans-38" x="159.033203"/>
     <use xlink:href="#DejaVuSans-25" x="222.65625"/>
    </g>
   </g>
   <g id="text_4">
    <!-- 49.3% -->
    <g transform="translate(323.087865 174.705878)scale(0.1 -0.1)">
     <defs>
      <path id="DejaVuSans-33" d="M 2597 2516 
Q 3050 2419 3304 2112 
Q 3559 1806 3559 1356 
Q 3559 666 3084 287 
Q 2609 -91 1734 -91 
Q 1441 -91 1130 -33 
Q 819 25 488 141 
L 488 750 
Q 750 597 1062 519 
Q 1375 441 1716 441 
Q 2309 441 2620 675 
Q 2931 909 2931 1356 
Q 2931 1769 2642 2001 
Q 2353 2234 1838 2234 
L 1294 2234 
L 1294 2753 
L 1863 2753 
Q 2328 2753 2575 2939 
Q 2822 3125 2822 3475 
Q 2822 3834 2567 4026 
Q 2313 4219 1838 4219 
Q 1578 4219 1281 4162 
Q 984 4106 628 3988 
L 628 4550 
Q 988 4650 1302 4700 
Q 1616 4750 1894 4750 
Q 2613 4750 3031 4423 
Q 3450 4097 3450 3541 
Q 3450 3153 3228 2886 
Q 3006 2619 2597 2516 
z
" transform="scale(0.015625)"/>
     </defs>
     <use xlink:href="#DejaVuSans-34"/>
     <use xlink:href="#DejaVuSans-39" x="63.623047"/>
     <use xlink:href="#DejaVuSans-2e" x="127.246094"/>
     <use xlink:href="#DejaVuSans-33" x="159.033203"/>
     <use xlink:href="#DejaVuSans-25" x="222.65625"/>
    </g>
   </g>
   <g id="text_5">
    <!-- envr_score -->
    <g transform="translate(193.589062 35.472)scale(0.14 -0.14)">
     <defs>
      <path id="DejaVuSans-Bold-65" d="M 4031 1759 
L 4031 1441 
L 1416 1441 
Q 1456 1047 1700 850 
Q 1944 653 2381 653 
Q 2734 653 3104 758 
Q 3475 863 3866 1075 
L 3866 213 
Q 3469 63 3072 -14 
Q 2675 -91 2278 -91 
Q 1328 -91 801 392 
Q 275 875 275 1747 
Q 275 2603 792 3093 
Q 1309 3584 2216 3584 
Q 3041 3584 3536 3087 
Q 4031 2591 4031 1759 
z
M 2881 2131 
Q 2881 2450 2695 2645 
Q 2509 2841 2209 2841 
Q 1884 2841 1681 2658 
Q 1478 2475 1428 2131 
L 2881 2131 
z
" transform="scale(0.015625)"/>
      <path id="DejaVuSans-Bold-6e" d="M 4056 2131 
L 4056 0 
L 2931 0 
L 2931 347 
L 2931 1631 
Q 2931 2084 2911 2256 
Q 2891 2428 2841 2509 
Q 2775 2619 2662 2680 
Q 2550 2741 2406 2741 
Q 2056 2741 1856 2470 
Q 1656 2200 1656 1722 
L 1656 0 
L 538 0 
L 538 3500 
L 1656 3500 
L 1656 2988 
Q 1909 3294 2193 3439 
Q 2478 3584 2822 3584 
Q 3428 3584 3742 3212 
Q 4056 2841 4056 2131 
z
" transform="scale(0.015625)"/>
      <path id="DejaVuSans-Bold-76" d="M 97 3500 
L 1216 3500 
L 2088 1081 
L 2956 3500 
L 4078 3500 
L 2700 0 
L 1472 0 
L 97 3500 
z
" transform="scale(0.015625)"/>
      <path id="DejaVuSans-Bold-72" d="M 3138 2547 
Q 2991 2616 2845 2648 
Q 2700 2681 2553 2681 
Q 2122 2681 1889 2404 
Q 1656 2128 1656 1613 
L 1656 0 
L 538 0 
L 538 3500 
L 1656 3500 
L 1656 2925 
Q 1872 3269 2151 3426 
Q 2431 3584 2822 3584 
Q 2878 3584 2943 3579 
Q 3009 3575 3134 3559 
L 3138 2547 
z
" transform="scale(0.015625)"/>
      <path id="DejaVuSans-Bold-5f" d="M 3200 -916 
L 3200 -1509 
L 0 -1509 
L 0 -916 
L 3200 -916 
z
" transform="scale(0.015625)"/>
      <path id="DejaVuSans-Bold-73" d="M 3272 3391 
L 3272 2541 
Q 2913 2691 2578 2766 
Q 2244 2841 1947 2841 
Q 1628 2841 1473 2761 
Q 1319 2681 1319 2516 
Q 1319 2381 1436 2309 
Q 1553 2238 1856 2203 
L 2053 2175 
Q 2913 2066 3209 1816 
Q 3506 1566 3506 1031 
Q 3506 472 3093 190 
Q 2681 -91 1863 -91 
Q 1516 -91 1145 -36 
Q 775 19 384 128 
L 384 978 
Q 719 816 1070 734 
Q 1422 653 1784 653 
Q 2113 653 2278 743 
Q 2444 834 2444 1013 
Q 2444 1163 2330 1236 
Q 2216 1309 1875 1350 
L 1678 1375 
Q 931 1469 631 1722 
Q 331 1975 331 2491 
Q 331 3047 712 3315 
Q 1094 3584 1881 3584 
Q 2191 3584 2531 3537 
Q 2872 3491 3272 3391 
z
" transform="scale(0.015625)"/>
      <path id="DejaVuSans-Bold-63" d="M 3366 3391 
L 3366 2478 
Q 3138 2634 2908 2709 
Q 2678 2784 2431 2784 
Q 1963 2784 1702 2511 
Q 1441 2238 1441 1747 
Q 1441 1256 1702 982 
Q 1963 709 2431 709 
Q 2694 709 2930 787 
Q 3166 866 3366 1019 
L 3366 103 
Q 3103 6 2833 -42 
Q 2563 -91 2291 -91 
Q 1344 -91 809 395 
Q 275 881 275 1747 
Q 275 2613 809 3098 
Q 1344 3584 2291 3584 
Q 2566 3584 2833 3536 
Q 3100 3488 3366 3391 
z
" transform="scale(0.015625)"/>
      <path id="DejaVuSans-Bold-6f" d="M 2203 2784 
Q 1831 2784 1636 2517 
Q 1441 2250 1441 1747 
Q 1441 1244 1636 976 
Q 1831 709 2203 709 
Q 2569 709 2762 976 
Q 2956 1244 2956 1747 
Q 2956 2250 2762 2517 
Q 2569 2784 2203 2784 
z
M 2203 3584 
Q 3106 3584 3614 3096 
Q 4122 2609 4122 1747 
Q 4122 884 3614 396 
Q 3106 -91 2203 -91 
Q 1297 -91 786 396 
Q 275 884 275 1747 
Q 275 2609 786 3096 
Q 1297 3584 2203 3584 
z
" transform="scale(0.015625)"/>
     </defs>
     <use xlink:href="#DejaVuSans-Bold-65"/>
     <use xlink:href="#DejaVuSans-Bold-6e" x="67.822266"/>
     <use xlink:href="#DejaVuSans-Bold-76" x="139.013672"/>
     <use xlink:href="#DejaVuSans-Bold-72" x="204.199219"/>
     <use xlink:href="#DejaVuSans-Bold-5f" x="253.515625"/>
     <use xlink:href="#DejaVuSans-Bold-73" x="303.515625"/>
     <use xlink:href="#DejaVuSans-Bold-63" x="363.037109"/>
     <use xlink:href="#DejaVuSans-Bold-6f" x="422.314453"/>
     <use xlink:href="#DejaVuSans-Bold-72" x="491.015625"/>
     <use xlink:href="#DejaVuSans-Bold-65" x="540.332031"/>
    </g>
   </g>
   <g id="legend_1">
    <g id="patch_22">
     <path d="M 64.6 196.25325 
L 112.503125 196.25325 
Q 114.503125 196.25325 114.503125 194.25325 
L 114.503125 48.472 
Q 114.503125 46.472 112.503125 46.472 
L 64.6 46.472 
Q 62.6 46.472 62.6 48.472 
L 62.6 194.25325 
Q 62.6 196.25325 64.6 196.25325 
z
" style="fill: #ffffff; opacity: 0.8; stroke: #cccccc; stroke-linejoin: miter"/>
    </g>
    <g id="patch_23">
     <path d="M 66.6 58.070437 
L 86.6 58.070437 
L 86.6 51.070437 
L 66.6 51.070437 
z
" style="fill: #ff9999"/>
    </g>
    <g id="text_6">
     <!-- 0.5 -->
     <g transform="translate(94.6 58.070437)scale(0.1 -0.1)">
      <defs>
       <path id="DejaVuSans-30" d="M 2034 4250 
Q 1547 4250 1301 3770 
Q 1056 3291 1056 2328 
Q 1056 1369 1301 889 
Q 1547 409 2034 409 
Q 2525 409 2770 889 
Q 3016 1369 3016 2328 
Q 3016 3291 2770 3770 
Q 2525 4250 2034 4250 
z
M 2034 4750 
Q 2819 4750 3233 4129 
Q 3647 3509 3647 2328 
Q 3647 1150 3233 529 
Q 2819 -91 2034 -91 
Q 1250 -91 836 529 
Q 422 1150 422 2328 
Q 422 3509 836 4129 
Q 1250 4750 2034 4750 
z
" transform="scale(0.015625)"/>
      </defs>
      <use xlink:href="#DejaVuSans-30"/>
      <use xlink:href="#DejaVuSans-2e" x="63.623047"/>
      <use xlink:href="#DejaVuSans-35" x="95.410156"/>
     </g>
    </g>
    <g id="patch_24">
     <path d="M 66.6 72.748562 
L 86.6 72.748562 
L 86.6 65.748562 
L 66.6 65.748562 
z
" style="fill: #66b3ff"/>
    </g>
    <g id="text_7">
     <!-- 1.0 -->
     <g transform="translate(94.6 72.748562)scale(0.1 -0.1)">
      <use xlink:href="#DejaVuSans-31"/>
      <use xlink:href="#DejaVuSans-2e" x="63.623047"/>
      <use xlink:href="#DejaVuSans-30" x="95.410156"/>
     </g>
    </g>
    <g id="patch_25">
     <path d="M 66.6 87.426688 
L 86.6 87.426688 
L 86.6 80.426688 
L 66.6 80.426688 
z
" style="fill: #99ff99"/>
    </g>
    <g id="text_8">
     <!-- 1.5 -->
     <g transform="translate(94.6 87.426688)scale(0.1 -0.1)">
      <use xlink:href="#DejaVuSans-31"/>
      <use xlink:href="#DejaVuSans-2e" x="63.623047"/>
      <use xlink:href="#DejaVuSans-35" x="95.410156"/>
     </g>
    </g>
    <g id="patch_26">
     <path d="M 66.6 102.104812 
L 86.6 102.104812 
L 86.6 95.104812 
L 66.6 95.104812 
z
" style="fill: #ffcc99"/>
    </g>
    <g id="text_9">
     <!-- 2.0 -->
     <g transform="translate(94.6 102.104812)scale(0.1 -0.1)">
      <use xlink:href="#DejaVuSans-32"/>
      <use xlink:href="#DejaVuSans-2e" x="63.623047"/>
      <use xlink:href="#DejaVuSans-30" x="95.410156"/>
     </g>
    </g>
    <g id="patch_27">
     <path d="M 66.6 116.782938 
L 86.6 116.782938 
L 86.6 109.782938 
L 66.6 109.782938 
z
" style="fill: #e6e6e6"/>
    </g>
    <g id="text_10">
     <!-- 2.5 -->
     <g transform="translate(94.6 116.782938)scale(0.1 -0.1)">
      <use xlink:href="#DejaVuSans-32"/>
      <use xlink:href="#DejaVuSans-2e" x="63.623047"/>
      <use xlink:href="#DejaVuSans-35" x="95.410156"/>
     </g>
    </g>
    <g id="patch_28">
     <path d="M 66.6 131.461062 
L 86.6 131.461062 
L 86.6 124.461062 
L 66.6 124.461062 
z
" style="fill: #f7cac9"/>
    </g>
    <g id="text_11">
     <!-- 3.0 -->
     <g transform="translate(94.6 131.461062)scale(0.1 -0.1)">
      <use xlink:href="#DejaVuSans-33"/>
      <use xlink:href="#DejaVuSans-2e" x="63.623047"/>
      <use xlink:href="#DejaVuSans-30" x="95.410156"/>
     </g>
    </g>
    <g id="patch_29">
     <path d="M 66.6 146.139187 
L 86.6 146.139187 
L 86.6 139.139187 
L 66.6 139.139187 
z
" style="fill: #92a8d1"/>
    </g>
    <g id="text_12">
     <!-- 3.5 -->
     <g transform="translate(94.6 146.139187)scale(0.1 -0.1)">
      <use xlink:href="#DejaVuSans-33"/>
      <use xlink:href="#DejaVuSans-2e" x="63.623047"/>
      <use xlink:href="#DejaVuSans-35" x="95.410156"/>
     </g>
    </g>
    <g id="patch_30">
     <path d="M 66.6 160.817312 
L 86.6 160.817312 
L 86.6 153.817312 
L 66.6 153.817312 
z
" style="fill: #f4dada"/>
    </g>
    <g id="text_13">
     <!-- 4.0 -->
     <g transform="translate(94.6 160.817312)scale(0.1 -0.1)">
      <use xlink:href="#DejaVuSans-34"/>
      <use xlink:href="#DejaVuSans-2e" x="63.623047"/>
      <use xlink:href="#DejaVuSans-30" x="95.410156"/>
     </g>
    </g>
    <g id="patch_31">
     <path d="M 66.6 175.495437 
L 86.6 175.495437 
L 86.6 168.495437 
L 66.6 168.495437 
z
" style="fill: #c4a29e"/>
    </g>
    <g id="text_14">
     <!-- 4.5 -->
     <g transform="translate(94.6 175.495437)scale(0.1 -0.1)">
      <use xlink:href="#DejaVuSans-34"/>
      <use xlink:href="#DejaVuSans-2e" x="63.623047"/>
      <use xlink:href="#DejaVuSans-35" x="95.410156"/>
     </g>
    </g>
    <g id="patch_32">
     <path d="M 66.6 190.173562 
L 86.6 190.173562 
L 86.6 183.173562 
L 66.6 183.173562 
z
" style="fill: #f9d5e5"/>
    </g>
    <g id="text_15">
     <!-- 5.0 -->
     <g transform="translate(94.6 190.173562)scale(0.1 -0.1)">
      <use xlink:href="#DejaVuSans-35"/>
      <use xlink:href="#DejaVuSans-2e" x="63.623047"/>
      <use xlink:href="#DejaVuSans-30" x="95.410156"/>
     </g>
    </g>
   </g>
  </g>
 </g>
</svg>
