<?xml version="1.0" encoding="utf-8" standalone="no"?>
<!DOCTYPE svg PUBLIC "-//W3C//DTD SVG 1.1//EN"
  "http://www.w3.org/Graphics/SVG/1.1/DTD/svg11.dtd">
<svg xmlns:xlink="http://www.w3.org/1999/xlink" width="460.8pt" height="345.6pt" viewBox="0 0 460.8 345.6" xmlns="http://www.w3.org/2000/svg" version="1.1">
 <metadata>
  <rdf:RDF xmlns:dc="http://purl.org/dc/elements/1.1/" xmlns:cc="http://creativecommons.org/ns#" xmlns:rdf="http://www.w3.org/1999/02/22-rdf-syntax-ns#">
   <cc:Work>
    <dc:type rdf:resource="http://purl.org/dc/dcmitype/StillImage"/>
    <dc:date>2023-05-14T11:59:23.391662</dc:date>
    <dc:format>image/svg+xml</dc:format>
    <dc:creator>
     <cc:Agent>
      <dc:title>Matplotlib v3.5.3, https://matplotlib.org/</dc:title>
     </cc:Agent>
    </dc:creator>
   </cc:Work>
  </rdf:RDF>
 </metadata>
 <defs>
  <style type="text/css">*{stroke-linejoin: round; stroke-linecap: butt}</style>
 </defs>
 <g id="figure_1">
  <g id="patch_1">
   <path d="M 0 345.6 
L 460.8 345.6 
L 460.8 0 
L 0 0 
z
" style="fill: #ffffff"/>
  </g>
  <g id="axes_1">
   <g id="patch_2">
    <path d="M 235.126645 55.975039 
C 233.676257 55.975039 232.225989 56.001257 230.776549 56.053681 
C 229.32711 56.106105 227.878736 56.184726 226.432139 56.289505 
L 235.126645 176.326977 
L 235.126645 55.975039 
z
" style="fill: #4c2e2e; opacity: 0.5; stroke: #4c2e2e; stroke-linejoin: miter"/>
   </g>
   <g id="patch_3">
    <path d="M 226.432139 56.289505 
C 226.373095 56.293782 226.314055 56.298102 226.255019 56.302466 
C 226.195982 56.30683 226.136948 56.311237 226.077918 56.315688 
L 235.126645 176.326977 
L 226.432139 56.289505 
z
" style="fill: #1f364c; opacity: 0.5; stroke: #1f364c; stroke-linejoin: miter"/>
   </g>
   <g id="patch_4">
    <path d="M 226.077918 56.315688 
C 225.900827 56.32904 225.723766 56.342785 225.546736 56.356921 
C 225.369705 56.371057 225.192707 56.385585 225.015741 56.400505 
L 235.126645 176.326977 
L 226.077918 56.315688 
z
" style="fill: #2e4c2e; opacity: 0.5; stroke: #2e4c2e; stroke-linejoin: miter"/>
   </g>
   <g id="patch_5">
    <path d="M 225.015741 56.400505 
C 224.868269 56.412938 224.720821 56.425644 224.573396 56.438621 
C 224.425972 56.451598 224.278571 56.464847 224.131195 56.478368 
L 235.126645 176.326977 
L 225.015741 56.400505 
z
" style="fill: #4c3d2e; opacity: 0.5; stroke: #4c3d2e; stroke-linejoin: miter"/>
   </g>
   <g id="patch_6">
    <path d="M 224.131195 56.478368 
C 223.099551 56.573015 222.069172 56.68098 221.040315 56.802233 
C 220.011458 56.923487 218.98421 57.05802 217.958827 57.205799 
L 235.126645 176.326977 
L 224.131195 56.478368 
z
" style="fill: #454545; opacity: 0.5; stroke: #454545; stroke-linejoin: miter"/>
   </g>
   <g id="patch_7">
    <path d="M 217.958827 57.205799 
C 216.904147 57.3578 215.851532 57.523801 214.801261 57.703759 
C 213.750989 57.883717 212.703154 58.077615 211.658032 58.285403 
L 235.126645 176.326977 
L 217.958827 57.205799 
z
" style="fill: #4a3d3c; opacity: 0.5; stroke: #4a3d3c; stroke-linejoin: miter"/>
   </g>
   <g id="patch_8">
    <path d="M 211.658032 58.285403 
C 205.471307 59.515426 199.390846 61.22993 193.472868 63.413063 
C 187.554891 65.596196 181.817693 68.241209 176.31432 71.323646 
L 235.126645 176.326977 
L 211.658032 58.285403 
z
" style="fill: #2c323f; opacity: 0.5; stroke: #2c323f; stroke-linejoin: miter"/>
   </g>
   <g id="patch_9">
    <path d="M 176.31432 71.323646 
C 163.053172 78.75121 151.318338 88.624164 141.73175 100.419252 
C 132.145163 112.21434 124.879227 125.71944 120.31903 140.218798 
L 235.126645 176.326977 
L 176.31432 71.323646 
z
" style="fill: #494141; opacity: 0.5; stroke: #494141; stroke-linejoin: miter"/>
   </g>
   <g id="patch_10">
    <path d="M 120.31903 140.218798 
C 110.787675 170.524177 113.633041 203.403831 128.228889 231.621271 
C 142.824738 259.838711 168.015491 281.159914 198.256911 290.892294 
L 235.126645 176.326977 
L 120.31903 140.218798 
z
" style="fill: #3b312f; opacity: 0.5; stroke: #3b312f; stroke-linejoin: miter"/>
   </g>
   <g id="patch_11">
    <path d="M 198.256911 290.892294 
C 214.803453 296.217348 232.30891 297.895039 249.565658 295.809628 
C 266.822405 293.724217 283.424281 287.924789 298.225996 278.811419 
C 313.027711 269.698049 325.680885 257.485235 335.312632 243.015483 
C 344.94438 228.545731 351.328003 212.159609 354.023125 194.987521 
C 356.718247 177.815434 355.661434 160.261551 350.92559 143.536837 
C 346.189746 126.812123 337.886337 111.310218 326.588178 98.10053 
C 315.290018 84.890842 301.263027 74.284279 285.474864 67.012541 
C 269.6867 59.740804 252.508962 55.975042 235.126664 55.975039 
L 235.126645 176.326977 
L 198.256911 290.892294 
z
" style="fill: #4b4045; opacity: 0.5; stroke: #4b4045; stroke-linejoin: miter"/>
   </g>
   <g id="patch_12">
    <path d="M 237.533683 53.568 
C 236.083296 53.568 234.633027 53.594218 233.183588 53.646642 
C 231.734148 53.699066 230.285775 53.777687 228.839177 53.882467 
L 237.533683 173.919938 
L 237.533683 53.568 
z
" style="fill: #ff9999"/>
   </g>
   <g id="patch_13">
    <path d="M 228.839177 53.882467 
C 228.780134 53.886743 228.721094 53.891063 228.662057 53.895427 
C 228.603021 53.899791 228.543987 53.904198 228.484957 53.908649 
L 237.533683 173.919938 
L 228.839177 53.882467 
z
" style="fill: #66b3ff"/>
   </g>
   <g id="patch_14">
    <path d="M 228.484957 53.908649 
C 228.307866 53.922001 228.130804 53.935746 227.953774 53.949882 
C 227.776744 53.964018 227.599745 53.978546 227.42278 53.993466 
L 237.533683 173.919938 
L 228.484957 53.908649 
z
" style="fill: #99ff99"/>
   </g>
   <g id="patch_15">
    <path d="M 227.42278 53.993466 
C 227.275308 54.0059 227.12786 54.018605 226.980435 54.031582 
C 226.83301 54.044559 226.68561 54.057808 226.538234 54.071329 
L 237.533683 173.919938 
L 227.42278 53.993466 
z
" style="fill: #ffcc99"/>
   </g>
   <g id="patch_16">
    <path d="M 226.538234 54.071329 
C 225.50659 54.165977 224.47621 54.273941 223.447354 54.395195 
C 222.418497 54.516448 221.391249 54.650981 220.365866 54.79876 
L 237.533683 173.919938 
L 226.538234 54.071329 
z
" style="fill: #e6e6e6"/>
   </g>
   <g id="patch_17">
    <path d="M 220.365866 54.79876 
C 219.311186 54.950761 218.258571 55.116763 217.208299 55.29672 
C 216.158028 55.476678 215.110193 55.670576 214.065071 55.878364 
L 237.533683 173.919938 
L 220.365866 54.79876 
z
" style="fill: #f7cac9"/>
   </g>
   <g id="patch_18">
    <path d="M 214.065071 55.878364 
C 207.878346 57.108387 201.797884 58.822891 195.879907 61.006024 
C 189.96193 63.189157 184.224732 65.83417 178.721359 68.916607 
L 237.533683 173.919938 
L 214.065071 55.878364 
z
" style="fill: #92a8d1"/>
   </g>
   <g id="patch_19">
    <path d="M 178.721359 68.916607 
C 165.460211 76.344171 153.725376 86.217125 144.138789 98.012213 
C 134.552202 109.807301 127.286266 123.312402 122.726069 137.811759 
L 237.533683 173.919938 
L 178.721359 68.916607 
z
" style="fill: #f4dada"/>
   </g>
   <g id="patch_20">
    <path d="M 122.726069 137.811759 
C 113.194714 168.117138 116.04008 200.996792 130.635928 229.214232 
C 145.231777 257.431672 170.42253 278.752876 200.66395 288.485255 
L 237.533683 173.919938 
L 122.726069 137.811759 
z
" style="fill: #c4a29e"/>
   </g>
   <g id="patch_21">
    <path d="M 200.66395 288.485255 
C 217.210492 293.81031 234.715949 295.488 251.972696 293.402589 
C 269.229444 291.317179 285.83132 285.51775 300.633035 276.40438 
C 315.43475 267.291011 328.087924 255.078196 337.719671 240.608444 
C 347.351419 226.138693 353.735042 209.75257 356.430164 192.580483 
C 359.125286 175.408395 358.068472 157.854512 353.332629 141.129798 
C 348.596785 124.405085 340.293376 108.90318 328.995216 95.693491 
C 317.697057 82.483803 303.670066 71.87724 287.881902 64.605502 
C 272.093739 57.333765 254.916001 53.568003 237.533703 53.568 
L 237.533683 173.919938 
L 200.66395 288.485255 
z
" style="fill: #f9d5e5"/>
   </g>
   <g id="matplotlib.axis_1"/>
   <g id="matplotlib.axis_2"/>
   <g id="text_1">
    <!-- 5.0% -->
    <g transform="translate(189.42563 80.702486)scale(0.1 -0.1)">
     <defs>
      <path id="DejaVuSans-35" d="M 691 4666 
L 3169 4666 
L 3169 4134 
L 1269 4134 
L 1269 2991 
Q 1406 3038 1543 3061 
Q 1681 3084 1819 3084 
Q 2600 3084 3056 2656 
Q 3513 2228 3513 1497 
Q 3513 744 3044 326 
Q 2575 -91 1722 -91 
Q 1428 -91 1123 -41 
Q 819 9 494 109 
L 494 744 
Q 775 591 1075 516 
Q 1375 441 1709 441 
Q 2250 441 2565 725 
Q 2881 1009 2881 1497 
Q 2881 1984 2565 2268 
Q 2250 2553 1709 2553 
Q 1456 2553 1204 2497 
Q 953 2441 691 2322 
L 691 4666 
z
" transform="scale(0.015625)"/>
      <path id="DejaVuSans-2e" d="M 684 794 
L 1344 794 
L 1344 0 
L 684 0 
L 684 794 
z
" transform="scale(0.015625)"/>
      <path id="DejaVuSans-30" d="M 2034 4250 
Q 1547 4250 1301 3770 
Q 1056 3291 1056 2328 
Q 1056 1369 1301 889 
Q 1547 409 2034 409 
Q 2525 409 2770 889 
Q 3016 1369 3016 2328 
Q 3016 3291 2770 3770 
Q 2525 4250 2034 4250 
z
M 2034 4750 
Q 2819 4750 3233 4129 
Q 3647 3509 3647 2328 
Q 3647 1150 3233 529 
Q 2819 -91 2034 -91 
Q 1250 -91 836 529 
Q 422 1150 422 2328 
Q 422 3509 836 4129 
Q 1250 4750 2034 4750 
z
" transform="scale(0.015625)"/>
      <path id="DejaVuSans-25" d="M 4653 2053 
Q 4381 2053 4226 1822 
Q 4072 1591 4072 1178 
Q 4072 772 4226 539 
Q 4381 306 4653 306 
Q 4919 306 5073 539 
Q 5228 772 5228 1178 
Q 5228 1588 5073 1820 
Q 4919 2053 4653 2053 
z
M 4653 2450 
Q 5147 2450 5437 2106 
Q 5728 1763 5728 1178 
Q 5728 594 5436 251 
Q 5144 -91 4653 -91 
Q 4153 -91 3862 251 
Q 3572 594 3572 1178 
Q 3572 1766 3864 2108 
Q 4156 2450 4653 2450 
z
M 1428 4353 
Q 1159 4353 1004 4120 
Q 850 3888 850 3481 
Q 850 3069 1003 2837 
Q 1156 2606 1428 2606 
Q 1700 2606 1854 2837 
Q 2009 3069 2009 3481 
Q 2009 3884 1853 4118 
Q 1697 4353 1428 4353 
z
M 4250 4750 
L 4750 4750 
L 1831 -91 
L 1331 -91 
L 4250 4750 
z
M 1428 4750 
Q 1922 4750 2215 4408 
Q 2509 4066 2509 3481 
Q 2509 2891 2217 2550 
Q 1925 2209 1428 2209 
Q 931 2209 642 2551 
Q 353 2894 353 3481 
Q 353 4063 643 4406 
Q 934 4750 1428 4750 
z
" transform="scale(0.015625)"/>
     </defs>
     <use xlink:href="#DejaVuSans-35"/>
     <use xlink:href="#DejaVuSans-2e" x="63.623047"/>
     <use xlink:href="#DejaVuSans-30" x="95.410156"/>
     <use xlink:href="#DejaVuSans-25" x="159.033203"/>
    </g>
   </g>
   <g id="text_2">
    <!-- 12.0% -->
    <g transform="translate(142.264429 112.157747)scale(0.1 -0.1)">
     <defs>
      <path id="DejaVuSans-31" d="M 794 531 
L 1825 531 
L 1825 4091 
L 703 3866 
L 703 4441 
L 1819 4666 
L 2450 4666 
L 2450 531 
L 3481 531 
L 3481 0 
L 794 0 
L 794 531 
z
" transform="scale(0.015625)"/>
      <path id="DejaVuSans-32" d="M 1228 531 
L 3431 531 
L 3431 0 
L 469 0 
L 469 531 
Q 828 903 1448 1529 
Q 2069 2156 2228 2338 
Q 2531 2678 2651 2914 
Q 2772 3150 2772 3378 
Q 2772 3750 2511 3984 
Q 2250 4219 1831 4219 
Q 1534 4219 1204 4116 
Q 875 4013 500 3803 
L 500 4441 
Q 881 4594 1212 4672 
Q 1544 4750 1819 4750 
Q 2544 4750 2975 4387 
Q 3406 4025 3406 3419 
Q 3406 3131 3298 2873 
Q 3191 2616 2906 2266 
Q 2828 2175 2409 1742 
Q 1991 1309 1228 531 
z
" transform="scale(0.015625)"/>
     </defs>
     <use xlink:href="#DejaVuSans-31"/>
     <use xlink:href="#DejaVuSans-32" x="63.623047"/>
     <use xlink:href="#DejaVuSans-2e" x="127.246094"/>
     <use xlink:href="#DejaVuSans-30" x="159.033203"/>
     <use xlink:href="#DejaVuSans-25" x="222.65625"/>
    </g>
   </g>
   <g id="text_3">
    <!-- 24.9% -->
    <g transform="translate(130.786998 223.679463)scale(0.1 -0.1)">
     <defs>
      <path id="DejaVuSans-34" d="M 2419 4116 
L 825 1625 
L 2419 1625 
L 2419 4116 
z
M 2253 4666 
L 3047 4666 
L 3047 1625 
L 3713 1625 
L 3713 1100 
L 3047 1100 
L 3047 0 
L 2419 0 
L 2419 1100 
L 313 1100 
L 313 1709 
L 2253 4666 
z
" transform="scale(0.015625)"/>
      <path id="DejaVuSans-39" d="M 703 97 
L 703 672 
Q 941 559 1184 500 
Q 1428 441 1663 441 
Q 2288 441 2617 861 
Q 2947 1281 2994 2138 
Q 2813 1869 2534 1725 
Q 2256 1581 1919 1581 
Q 1219 1581 811 2004 
Q 403 2428 403 3163 
Q 403 3881 828 4315 
Q 1253 4750 1959 4750 
Q 2769 4750 3195 4129 
Q 3622 3509 3622 2328 
Q 3622 1225 3098 567 
Q 2575 -91 1691 -91 
Q 1453 -91 1209 -44 
Q 966 3 703 97 
z
M 1959 2075 
Q 2384 2075 2632 2365 
Q 2881 2656 2881 3163 
Q 2881 3666 2632 3958 
Q 2384 4250 1959 4250 
Q 1534 4250 1286 3958 
Q 1038 3666 1038 3163 
Q 1038 2656 1286 2365 
Q 1534 2075 1959 2075 
z
" transform="scale(0.015625)"/>
     </defs>
     <use xlink:href="#DejaVuSans-32"/>
     <use xlink:href="#DejaVuSans-34" x="63.623047"/>
     <use xlink:href="#DejaVuSans-2e" x="127.246094"/>
     <use xlink:href="#DejaVuSans-39" x="159.033203"/>
     <use xlink:href="#DejaVuSans-25" x="222.65625"/>
    </g>
   </g>
   <g id="text_4">
    <!-- 55.0% -->
    <g transform="translate(322.712098 192.540776)scale(0.1 -0.1)">
     <use xlink:href="#DejaVuSans-35"/>
     <use xlink:href="#DejaVuSans-35" x="63.623047"/>
     <use xlink:href="#DejaVuSans-2e" x="127.246094"/>
     <use xlink:href="#DejaVuSans-30" x="159.033203"/>
     <use xlink:href="#DejaVuSans-25" x="222.65625"/>
    </g>
   </g>
   <g id="text_5">
    <!-- envr_score -->
    <g transform="translate(193.589062 35.472)scale(0.14 -0.14)">
     <defs>
      <path id="DejaVuSans-Bold-65" d="M 4031 1759 
L 4031 1441 
L 1416 1441 
Q 1456 1047 1700 850 
Q 1944 653 2381 653 
Q 2734 653 3104 758 
Q 3475 863 3866 1075 
L 3866 213 
Q 3469 63 3072 -14 
Q 2675 -91 2278 -91 
Q 1328 -91 801 392 
Q 275 875 275 1747 
Q 275 2603 792 3093 
Q 1309 3584 2216 3584 
Q 3041 3584 3536 3087 
Q 4031 2591 4031 1759 
z
M 2881 2131 
Q 2881 2450 2695 2645 
Q 2509 2841 2209 2841 
Q 1884 2841 1681 2658 
Q 1478 2475 1428 2131 
L 2881 2131 
z
" transform="scale(0.015625)"/>
      <path id="DejaVuSans-Bold-6e" d="M 4056 2131 
L 4056 0 
L 2931 0 
L 2931 347 
L 2931 1631 
Q 2931 2084 2911 2256 
Q 2891 2428 2841 2509 
Q 2775 2619 2662 2680 
Q 2550 2741 2406 2741 
Q 2056 2741 1856 2470 
Q 1656 2200 1656 1722 
L 1656 0 
L 538 0 
L 538 3500 
L 1656 3500 
L 1656 2988 
Q 1909 3294 2193 3439 
Q 2478 3584 2822 3584 
Q 3428 3584 3742 3212 
Q 4056 2841 4056 2131 
z
" transform="scale(0.015625)"/>
      <path id="DejaVuSans-Bold-76" d="M 97 3500 
L 1216 3500 
L 2088 1081 
L 2956 3500 
L 4078 3500 
L 2700 0 
L 1472 0 
L 97 3500 
z
" transform="scale(0.015625)"/>
      <path id="DejaVuSans-Bold-72" d="M 3138 2547 
Q 2991 2616 2845 2648 
Q 2700 2681 2553 2681 
Q 2122 2681 1889 2404 
Q 1656 2128 1656 1613 
L 1656 0 
L 538 0 
L 538 3500 
L 1656 3500 
L 1656 2925 
Q 1872 3269 2151 3426 
Q 2431 3584 2822 3584 
Q 2878 3584 2943 3579 
Q 3009 3575 3134 3559 
L 3138 2547 
z
" transform="scale(0.015625)"/>
      <path id="DejaVuSans-Bold-5f" d="M 3200 -916 
L 3200 -1509 
L 0 -1509 
L 0 -916 
L 3200 -916 
z
" transform="scale(0.015625)"/>
      <path id="DejaVuSans-Bold-73" d="M 3272 3391 
L 3272 2541 
Q 2913 2691 2578 2766 
Q 2244 2841 1947 2841 
Q 1628 2841 1473 2761 
Q 1319 2681 1319 2516 
Q 1319 2381 1436 2309 
Q 1553 2238 1856 2203 
L 2053 2175 
Q 2913 2066 3209 1816 
Q 3506 1566 3506 1031 
Q 3506 472 3093 190 
Q 2681 -91 1863 -91 
Q 1516 -91 1145 -36 
Q 775 19 384 128 
L 384 978 
Q 719 816 1070 734 
Q 1422 653 1784 653 
Q 2113 653 2278 743 
Q 2444 834 2444 1013 
Q 2444 1163 2330 1236 
Q 2216 1309 1875 1350 
L 1678 1375 
Q 931 1469 631 1722 
Q 331 1975 331 2491 
Q 331 3047 712 3315 
Q 1094 3584 1881 3584 
Q 2191 3584 2531 3537 
Q 2872 3491 3272 3391 
z
" transform="scale(0.015625)"/>
      <path id="DejaVuSans-Bold-63" d="M 3366 3391 
L 3366 2478 
Q 3138 2634 2908 2709 
Q 2678 2784 2431 2784 
Q 1963 2784 1702 2511 
Q 1441 2238 1441 1747 
Q 1441 1256 1702 982 
Q 1963 709 2431 709 
Q 2694 709 2930 787 
Q 3166 866 3366 1019 
L 3366 103 
Q 3103 6 2833 -42 
Q 2563 -91 2291 -91 
Q 1344 -91 809 395 
Q 275 881 275 1747 
Q 275 2613 809 3098 
Q 1344 3584 2291 3584 
Q 2566 3584 2833 3536 
Q 3100 3488 3366 3391 
z
" transform="scale(0.015625)"/>
      <path id="DejaVuSans-Bold-6f" d="M 2203 2784 
Q 1831 2784 1636 2517 
Q 1441 2250 1441 1747 
Q 1441 1244 1636 976 
Q 1831 709 2203 709 
Q 2569 709 2762 976 
Q 2956 1244 2956 1747 
Q 2956 2250 2762 2517 
Q 2569 2784 2203 2784 
z
M 2203 3584 
Q 3106 3584 3614 3096 
Q 4122 2609 4122 1747 
Q 4122 884 3614 396 
Q 3106 -91 2203 -91 
Q 1297 -91 786 396 
Q 275 884 275 1747 
Q 275 2609 786 3096 
Q 1297 3584 2203 3584 
z
" transform="scale(0.015625)"/>
     </defs>
     <use xlink:href="#DejaVuSans-Bold-65"/>
     <use xlink:href="#DejaVuSans-Bold-6e" x="67.822266"/>
     <use xlink:href="#DejaVuSans-Bold-76" x="139.013672"/>
     <use xlink:href="#DejaVuSans-Bold-72" x="204.199219"/>
     <use xlink:href="#DejaVuSans-Bold-5f" x="253.515625"/>
     <use xlink:href="#DejaVuSans-Bold-73" x="303.515625"/>
     <use xlink:href="#DejaVuSans-Bold-63" x="363.037109"/>
     <use xlink:href="#DejaVuSans-Bold-6f" x="422.314453"/>
     <use xlink:href="#DejaVuSans-Bold-72" x="491.015625"/>
     <use xlink:href="#DejaVuSans-Bold-65" x="540.332031"/>
    </g>
   </g>
   <g id="legend_1">
    <g id="patch_22">
     <path d="M 64.6 196.25325 
L 112.503125 196.25325 
Q 114.503125 196.25325 114.503125 194.25325 
L 114.503125 48.472 
Q 114.503125 46.472 112.503125 46.472 
L 64.6 46.472 
Q 62.6 46.472 62.6 48.472 
L 62.6 194.25325 
Q 62.6 196.25325 64.6 196.25325 
z
" style="fill: #ffffff; opacity: 0.8; stroke: #cccccc; stroke-linejoin: miter"/>
    </g>
    <g id="patch_23">
     <path d="M 66.6 58.070437 
L 86.6 58.070437 
L 86.6 51.070437 
L 66.6 51.070437 
z
" style="fill: #ff9999"/>
    </g>
    <g id="text_6">
     <!-- 0.5 -->
     <g transform="translate(94.6 58.070437)scale(0.1 -0.1)">
      <use xlink:href="#DejaVuSans-30"/>
      <use xlink:href="#DejaVuSans-2e" x="63.623047"/>
      <use xlink:href="#DejaVuSans-35" x="95.410156"/>
     </g>
    </g>
    <g id="patch_24">
     <path d="M 66.6 72.748562 
L 86.6 72.748562 
L 86.6 65.748562 
L 66.6 65.748562 
z
" style="fill: #66b3ff"/>
    </g>
    <g id="text_7">
     <!-- 1.0 -->
     <g transform="translate(94.6 72.748562)scale(0.1 -0.1)">
      <use xlink:href="#DejaVuSans-31"/>
      <use xlink:href="#DejaVuSans-2e" x="63.623047"/>
      <use xlink:href="#DejaVuSans-30" x="95.410156"/>
     </g>
    </g>
    <g id="patch_25">
     <path d="M 66.6 87.426688 
L 86.6 87.426688 
L 86.6 80.426688 
L 66.6 80.426688 
z
" style="fill: #99ff99"/>
    </g>
    <g id="text_8">
     <!-- 1.5 -->
     <g transform="translate(94.6 87.426688)scale(0.1 -0.1)">
      <use xlink:href="#DejaVuSans-31"/>
      <use xlink:href="#DejaVuSans-2e" x="63.623047"/>
      <use xlink:href="#DejaVuSans-35" x="95.410156"/>
     </g>
    </g>
    <g id="patch_26">
     <path d="M 66.6 102.104812 
L 86.6 102.104812 
L 86.6 95.104812 
L 66.6 95.104812 
z
" style="fill: #ffcc99"/>
    </g>
    <g id="text_9">
     <!-- 2.0 -->
     <g transform="translate(94.6 102.104812)scale(0.1 -0.1)">
      <use xlink:href="#DejaVuSans-32"/>
      <use xlink:href="#DejaVuSans-2e" x="63.623047"/>
      <use xlink:href="#DejaVuSans-30" x="95.410156"/>
     </g>
    </g>
    <g id="patch_27">
     <path d="M 66.6 116.782938 
L 86.6 116.782938 
L 86.6 109.782938 
L 66.6 109.782938 
z
" style="fill: #e6e6e6"/>
    </g>
    <g id="text_10">
     <!-- 2.5 -->
     <g transform="translate(94.6 116.782938)scale(0.1 -0.1)">
      <use xlink:href="#DejaVuSans-32"/>
      <use xlink:href="#DejaVuSans-2e" x="63.623047"/>
      <use xlink:href="#DejaVuSans-35" x="95.410156"/>
     </g>
    </g>
    <g id="patch_28">
     <path d="M 66.6 131.461062 
L 86.6 131.461062 
L 86.6 124.461062 
L 66.6 124.461062 
z
" style="fill: #f7cac9"/>
    </g>
    <g id="text_11">
     <!-- 3.0 -->
     <g transform="translate(94.6 131.461062)scale(0.1 -0.1)">
      <defs>
       <path id="DejaVuSans-33" d="M 2597 2516 
Q 3050 2419 3304 2112 
Q 3559 1806 3559 1356 
Q 3559 666 3084 287 
Q 2609 -91 1734 -91 
Q 1441 -91 1130 -33 
Q 819 25 488 141 
L 488 750 
Q 750 597 1062 519 
Q 1375 441 1716 441 
Q 2309 441 2620 675 
Q 2931 909 2931 1356 
Q 2931 1769 2642 2001 
Q 2353 2234 1838 2234 
L 1294 2234 
L 1294 2753 
L 1863 2753 
Q 2328 2753 2575 2939 
Q 2822 3125 2822 3475 
Q 2822 3834 2567 4026 
Q 2313 4219 1838 4219 
Q 1578 4219 1281 4162 
Q 984 4106 628 3988 
L 628 4550 
Q 988 4650 1302 4700 
Q 1616 4750 1894 4750 
Q 2613 4750 3031 4423 
Q 3450 4097 3450 3541 
Q 3450 3153 3228 2886 
Q 3006 2619 2597 2516 
z
" transform="scale(0.015625)"/>
      </defs>
      <use xlink:href="#DejaVuSans-33"/>
      <use xlink:href="#DejaVuSans-2e" x="63.623047"/>
      <use xlink:href="#DejaVuSans-30" x="95.410156"/>
     </g>
    </g>
    <g id="patch_29">
     <path d="M 66.6 146.139187 
L 86.6 146.139187 
L 86.6 139.139187 
L 66.6 139.139187 
z
" style="fill: #92a8d1"/>
    </g>
    <g id="text_12">
     <!-- 3.5 -->
     <g transform="translate(94.6 146.139187)scale(0.1 -0.1)">
      <use xlink:href="#DejaVuSans-33"/>
      <use xlink:href="#DejaVuSans-2e" x="63.623047"/>
      <use xlink:href="#DejaVuSans-35" x="95.410156"/>
     </g>
    </g>
    <g id="patch_30">
     <path d="M 66.6 160.817312 
L 86.6 160.817312 
L 86.6 153.817312 
L 66.6 153.817312 
z
" style="fill: #f4dada"/>
    </g>
    <g id="text_13">
     <!-- 4.0 -->
     <g transform="translate(94.6 160.817312)scale(0.1 -0.1)">
      <use xlink:href="#DejaVuSans-34"/>
      <use xlink:href="#DejaVuSans-2e" x="63.623047"/>
      <use xlink:href="#DejaVuSans-30" x="95.410156"/>
     </g>
    </g>
    <g id="patch_31">
     <path d="M 66.6 175.495437 
L 86.6 175.495437 
L 86.6 168.495437 
L 66.6 168.495437 
z
" style="fill: #c4a29e"/>
    </g>
    <g id="text_14">
     <!-- 4.5 -->
     <g transform="translate(94.6 175.495437)scale(0.1 -0.1)">
      <use xlink:href="#DejaVuSans-34"/>
      <use xlink:href="#DejaVuSans-2e" x="63.623047"/>
      <use xlink:href="#DejaVuSans-35" x="95.410156"/>
     </g>
    </g>
    <g id="patch_32">
     <path d="M 66.6 190.173562 
L 86.6 190.173562 
L 86.6 183.173562 
L 66.6 183.173562 
z
" style="fill: #f9d5e5"/>
    </g>
    <g id="text_15">
     <!-- 5.0 -->
     <g transform="translate(94.6 190.173562)scale(0.1 -0.1)">
      <use xlink:href="#DejaVuSans-35"/>
      <use xlink:href="#DejaVuSans-2e" x="63.623047"/>
      <use xlink:href="#DejaVuSans-30" x="95.410156"/>
     </g>
    </g>
   </g>
  </g>
 </g>
</svg>
