<?xml version="1.0" encoding="utf-8" standalone="no"?>
<!DOCTYPE svg PUBLIC "-//W3C//DTD SVG 1.1//EN"
  "http://www.w3.org/Graphics/SVG/1.1/DTD/svg11.dtd">
<svg xmlns:xlink="http://www.w3.org/1999/xlink" width="460.8pt" height="345.6pt" viewBox="0 0 460.8 345.6" xmlns="http://www.w3.org/2000/svg" version="1.1">
 <metadata>
  <rdf:RDF xmlns:dc="http://purl.org/dc/elements/1.1/" xmlns:cc="http://creativecommons.org/ns#" xmlns:rdf="http://www.w3.org/1999/02/22-rdf-syntax-ns#">
   <cc:Work>
    <dc:type rdf:resource="http://purl.org/dc/dcmitype/StillImage"/>
    <dc:date>2023-05-14T11:59:23.295505</dc:date>
    <dc:format>image/svg+xml</dc:format>
    <dc:creator>
     <cc:Agent>
      <dc:title>Matplotlib v3.5.3, https://matplotlib.org/</dc:title>
     </cc:Agent>
    </dc:creator>
   </cc:Work>
  </rdf:RDF>
 </metadata>
 <defs>
  <style type="text/css">*{stroke-linejoin: round; stroke-linecap: butt}</style>
 </defs>
 <g id="figure_1">
  <g id="patch_1">
   <path d="M 0 345.6 
L 460.8 345.6 
L 460.8 0 
L 0 0 
z
" style="fill: #ffffff"/>
  </g>
  <g id="axes_1">
   <g id="patch_2">
    <path d="M 233.671679 55.975388 
C 232.132264 55.975388 230.592991 56.004919 229.054709 56.063966 
C 227.516428 56.123013 225.97942 56.211564 224.444535 56.329571 
L 233.671679 176.344765 
L 233.671679 55.975388 
z
" style="fill: #4c2e2e; opacity: 0.5; stroke: #4c2e2e; stroke-linejoin: miter"/>
   </g>
   <g id="patch_3">
    <path d="M 224.444535 56.329571 
C 224.415019 56.33184 224.385503 56.33412 224.355989 56.336411 
C 224.326475 56.338702 224.296961 56.341004 224.267448 56.343317 
L 233.671679 176.344765 
L 224.444535 56.329571 
z
" style="fill: #1f364c; opacity: 0.5; stroke: #1f364c; stroke-linejoin: miter"/>
   </g>
   <g id="patch_4">
    <path d="M 224.267448 56.343317 
C 224.031346 56.36182 223.795299 56.381019 223.559311 56.400916 
C 223.323322 56.420812 223.087392 56.441404 222.851525 56.462693 
L 233.671679 176.344765 
L 224.267448 56.343317 
z
" style="fill: #2e4c2e; opacity: 0.5; stroke: #2e4c2e; stroke-linejoin: miter"/>
   </g>
   <g id="patch_5">
    <path d="M 222.851525 56.462693 
C 222.704108 56.475998 222.556716 56.489575 222.409349 56.503424 
C 222.261982 56.517273 222.114641 56.531394 221.967326 56.545787 
L 233.671679 176.344765 
L 222.851525 56.462693 
z
" style="fill: #4c3d2e; opacity: 0.5; stroke: #4c3d2e; stroke-linejoin: miter"/>
   </g>
   <g id="patch_6">
    <path d="M 221.967326 56.545787 
C 220.700393 56.669566 219.435504 56.813435 218.173135 56.97734 
C 216.910766 57.141245 215.651076 57.325164 214.394541 57.52903 
L 233.671679 176.344765 
L 221.967326 56.545787 
z
" style="fill: #454545; opacity: 0.5; stroke: #454545; stroke-linejoin: miter"/>
   </g>
   <g id="patch_7">
    <path d="M 214.394541 57.52903 
C 213.021114 57.75186 211.651653 57.998487 210.286777 58.2688 
C 208.921901 58.539114 207.561815 58.833072 206.207131 59.150543 
L 233.671679 176.344765 
L 214.394541 57.52903 
z
" style="fill: #4a3d3c; opacity: 0.5; stroke: #4a3d3c; stroke-linejoin: miter"/>
   </g>
   <g id="patch_8">
    <path d="M 206.207131 59.150543 
C 200.324601 60.529118 194.554206 62.348647 188.944894 64.593695 
C 183.335581 66.838743 177.903255 69.502945 172.693994 72.563702 
L 233.671679 176.344765 
L 206.207131 59.150543 
z
" style="fill: #2c323f; opacity: 0.5; stroke: #2c323f; stroke-linejoin: miter"/>
   </g>
   <g id="patch_9">
    <path d="M 172.693994 72.563702 
C 159.381182 80.385789 147.69698 90.696915 138.279948 102.933562 
C 128.862916 115.170209 121.887788 129.105325 117.735763 143.977336 
L 233.671679 176.344765 
L 172.693994 72.563702 
z
" style="fill: #494141; opacity: 0.5; stroke: #494141; stroke-linejoin: miter"/>
   </g>
   <g id="patch_10">
    <path d="M 117.735763 143.977336 
C 113.455172 159.309856 112.258386 175.34032 114.214854 191.13848 
C 116.171322 206.936639 121.242453 222.190875 129.133969 236.015982 
C 137.025484 249.841089 147.581725 261.964368 160.190109 271.682302 
C 172.798494 281.400236 187.210323 288.52114 202.589276 292.631786 
L 233.671679 176.344765 
L 117.735763 143.977336 
z
" style="fill: #3b312f; opacity: 0.5; stroke: #3b312f; stroke-linejoin: miter"/>
   </g>
   <g id="patch_11">
    <path d="M 202.589276 292.631786 
C 219.138619 297.055267 236.443172 297.895388 253.343187 295.095844 
C 270.243202 292.296301 286.352507 285.921064 300.59146 276.397401 
C 314.830413 266.873737 326.873649 254.419267 335.914032 239.868685 
C 344.954414 225.318103 350.785368 209.003897 353.016103 192.01944 
C 355.246839 175.034983 353.826383 157.768378 348.849934 141.376828 
C 343.873485 124.985278 335.454758 109.843337 324.157972 96.965815 
C 312.861187 84.088292 298.94448 73.769444 283.340546 66.700838 
C 267.736612 59.632232 250.802007 55.975388 233.671684 55.975388 
L 233.671679 176.344765 
L 202.589276 292.631786 
z
" style="fill: #4b4045; opacity: 0.5; stroke: #4b4045; stroke-linejoin: miter"/>
   </g>
   <g id="patch_12">
    <path d="M 236.079067 53.568 
C 234.539652 53.568 233.000379 53.597532 231.462097 53.656578 
C 229.923815 53.715625 228.386807 53.804176 226.851922 53.922183 
L 236.079067 173.937378 
L 236.079067 53.568 
z
" style="fill: #ff9999"/>
   </g>
   <g id="patch_13">
    <path d="M 226.851922 53.922183 
C 226.822406 53.924453 226.792891 53.926733 226.763377 53.929024 
C 226.733862 53.931315 226.704349 53.933617 226.674836 53.93593 
L 236.079067 173.937378 
L 226.851922 53.922183 
z
" style="fill: #66b3ff"/>
   </g>
   <g id="patch_14">
    <path d="M 226.674836 53.93593 
C 226.438734 53.954432 226.202687 53.973632 225.966698 53.993528 
C 225.730709 54.013424 225.49478 54.034016 225.258913 54.055305 
L 236.079067 173.937378 
L 226.674836 53.93593 
z
" style="fill: #99ff99"/>
   </g>
   <g id="patch_15">
    <path d="M 225.258913 54.055305 
C 225.111496 54.06861 224.964104 54.082188 224.816737 54.096037 
C 224.66937 54.109886 224.522029 54.124007 224.374714 54.138399 
L 236.079067 173.937378 
L 225.258913 54.055305 
z
" style="fill: #ffcc99"/>
   </g>
   <g id="patch_16">
    <path d="M 224.374714 54.138399 
C 223.107781 54.262179 221.842891 54.406048 220.580522 54.569952 
C 219.318153 54.733857 218.058463 54.917777 216.801929 55.121642 
L 236.079067 173.937378 
L 224.374714 54.138399 
z
" style="fill: #e6e6e6"/>
   </g>
   <g id="patch_17">
    <path d="M 216.801929 55.121642 
C 215.428501 55.344472 214.059041 55.5911 212.694165 55.861413 
C 211.329289 56.131726 209.969202 56.425685 208.614519 56.743156 
L 236.079067 173.937378 
L 216.801929 55.121642 
z
" style="fill: #f7cac9"/>
   </g>
   <g id="patch_18">
    <path d="M 208.614519 56.743156 
C 202.731989 58.121731 196.961594 59.941259 191.352281 62.186307 
C 185.742968 64.431355 180.310642 67.095557 175.101382 70.156315 
L 236.079067 173.937378 
L 208.614519 56.743156 
z
" style="fill: #92a8d1"/>
   </g>
   <g id="patch_19">
    <path d="M 175.101382 70.156315 
C 161.788569 77.978402 150.104368 88.289527 140.687336 100.526175 
C 131.270304 112.762822 124.295175 126.697938 120.143151 141.569949 
L 236.079067 173.937378 
L 175.101382 70.156315 
z
" style="fill: #f4dada"/>
   </g>
   <g id="patch_20">
    <path d="M 120.143151 141.569949 
C 115.86256 156.902468 114.665774 172.932933 116.622242 188.731092 
C 118.57871 204.529251 123.649841 219.783488 131.541356 233.608595 
C 139.432872 247.433702 149.989112 259.55698 162.597497 269.274914 
C 175.205881 278.992848 189.617711 286.113752 204.996663 290.224399 
L 236.079067 173.937378 
L 120.143151 141.569949 
z
" style="fill: #c4a29e"/>
   </g>
   <g id="patch_21">
    <path d="M 204.996663 290.224399 
C 221.546007 294.647879 238.85056 295.488 255.750575 292.688457 
C 272.65059 289.888913 288.759895 283.513677 302.998848 273.990013 
C 317.237801 264.46635 329.281036 252.011879 338.321419 237.461298 
C 347.361802 222.910716 353.192755 206.596509 355.423491 189.612053 
C 357.654226 172.627596 356.23377 155.360991 351.257322 138.969441 
C 346.280873 122.577891 337.862145 107.43595 326.56536 94.558427 
C 315.268575 81.680904 301.351868 71.362057 285.747934 64.293451 
C 270.144 57.224845 253.209395 53.568001 236.079072 53.568 
L 236.079067 173.937378 
L 204.996663 290.224399 
z
" style="fill: #f9d5e5"/>
   </g>
   <g id="matplotlib.axis_1"/>
   <g id="matplotlib.axis_2"/>
   <g id="text_1">
    <!-- 4.8% -->
    <g transform="translate(185.358955 81.708343)scale(0.1 -0.1)">
     <defs>
      <path id="DejaVuSans-34" d="M 2419 4116 
L 825 1625 
L 2419 1625 
L 2419 4116 
z
M 2253 4666 
L 3047 4666 
L 3047 1625 
L 3713 1625 
L 3713 1100 
L 3047 1100 
L 3047 0 
L 2419 0 
L 2419 1100 
L 313 1100 
L 313 1709 
L 2253 4666 
z
" transform="scale(0.015625)"/>
      <path id="DejaVuSans-2e" d="M 684 794 
L 1344 794 
L 1344 0 
L 684 0 
L 684 794 
z
" transform="scale(0.015625)"/>
      <path id="DejaVuSans-38" d="M 2034 2216 
Q 1584 2216 1326 1975 
Q 1069 1734 1069 1313 
Q 1069 891 1326 650 
Q 1584 409 2034 409 
Q 2484 409 2743 651 
Q 3003 894 3003 1313 
Q 3003 1734 2745 1975 
Q 2488 2216 2034 2216 
z
M 1403 2484 
Q 997 2584 770 2862 
Q 544 3141 544 3541 
Q 544 4100 942 4425 
Q 1341 4750 2034 4750 
Q 2731 4750 3128 4425 
Q 3525 4100 3525 3541 
Q 3525 3141 3298 2862 
Q 3072 2584 2669 2484 
Q 3125 2378 3379 2068 
Q 3634 1759 3634 1313 
Q 3634 634 3220 271 
Q 2806 -91 2034 -91 
Q 1263 -91 848 271 
Q 434 634 434 1313 
Q 434 1759 690 2068 
Q 947 2378 1403 2484 
z
M 1172 3481 
Q 1172 3119 1398 2916 
Q 1625 2713 2034 2713 
Q 2441 2713 2670 2916 
Q 2900 3119 2900 3481 
Q 2900 3844 2670 4047 
Q 2441 4250 2034 4250 
Q 1625 4250 1398 4047 
Q 1172 3844 1172 3481 
z
" transform="scale(0.015625)"/>
      <path id="DejaVuSans-25" d="M 4653 2053 
Q 4381 2053 4226 1822 
Q 4072 1591 4072 1178 
Q 4072 772 4226 539 
Q 4381 306 4653 306 
Q 4919 306 5073 539 
Q 5228 772 5228 1178 
Q 5228 1588 5073 1820 
Q 4919 2053 4653 2053 
z
M 4653 2450 
Q 5147 2450 5437 2106 
Q 5728 1763 5728 1178 
Q 5728 594 5436 251 
Q 5144 -91 4653 -91 
Q 4153 -91 3862 251 
Q 3572 594 3572 1178 
Q 3572 1766 3864 2108 
Q 4156 2450 4653 2450 
z
M 1428 4353 
Q 1159 4353 1004 4120 
Q 850 3888 850 3481 
Q 850 3069 1003 2837 
Q 1156 2606 1428 2606 
Q 1700 2606 1854 2837 
Q 2009 3069 2009 3481 
Q 2009 3884 1853 4118 
Q 1697 4353 1428 4353 
z
M 4250 4750 
L 4750 4750 
L 1831 -91 
L 1331 -91 
L 4250 4750 
z
M 1428 4750 
Q 1922 4750 2215 4408 
Q 2509 4066 2509 3481 
Q 2509 2891 2217 2550 
Q 1925 2209 1428 2209 
Q 931 2209 642 2551 
Q 353 2894 353 3481 
Q 353 4063 643 4406 
Q 934 4750 1428 4750 
z
" transform="scale(0.015625)"/>
     </defs>
     <use xlink:href="#DejaVuSans-34"/>
     <use xlink:href="#DejaVuSans-2e" x="63.623047"/>
     <use xlink:href="#DejaVuSans-38" x="95.410156"/>
     <use xlink:href="#DejaVuSans-25" x="159.033203"/>
    </g>
   </g>
   <g id="text_2">
    <!-- 12.2% -->
    <g transform="translate(139.112502 114.29723)scale(0.1 -0.1)">
     <defs>
      <path id="DejaVuSans-31" d="M 794 531 
L 1825 531 
L 1825 4091 
L 703 3866 
L 703 4441 
L 1819 4666 
L 2450 4666 
L 2450 531 
L 3481 531 
L 3481 0 
L 794 0 
L 794 531 
z
" transform="scale(0.015625)"/>
      <path id="DejaVuSans-32" d="M 1228 531 
L 3431 531 
L 3431 0 
L 469 0 
L 469 531 
Q 828 903 1448 1529 
Q 2069 2156 2228 2338 
Q 2531 2678 2651 2914 
Q 2772 3150 2772 3378 
Q 2772 3750 2511 3984 
Q 2250 4219 1831 4219 
Q 1534 4219 1204 4116 
Q 875 4013 500 3803 
L 500 4441 
Q 881 4594 1212 4672 
Q 1544 4750 1819 4750 
Q 2544 4750 2975 4387 
Q 3406 4025 3406 3419 
Q 3406 3131 3298 2873 
Q 3191 2616 2906 2266 
Q 2828 2175 2409 1742 
Q 1991 1309 1228 531 
z
" transform="scale(0.015625)"/>
     </defs>
     <use xlink:href="#DejaVuSans-31"/>
     <use xlink:href="#DejaVuSans-32" x="63.623047"/>
     <use xlink:href="#DejaVuSans-2e" x="127.246094"/>
     <use xlink:href="#DejaVuSans-32" x="159.033203"/>
     <use xlink:href="#DejaVuSans-25" x="222.65625"/>
    </g>
   </g>
   <g id="text_3">
    <!-- 25.2% -->
    <g transform="translate(131.338419 227.417287)scale(0.1 -0.1)">
     <defs>
      <path id="DejaVuSans-35" d="M 691 4666 
L 3169 4666 
L 3169 4134 
L 1269 4134 
L 1269 2991 
Q 1406 3038 1543 3061 
Q 1681 3084 1819 3084 
Q 2600 3084 3056 2656 
Q 3513 2228 3513 1497 
Q 3513 744 3044 326 
Q 2575 -91 1722 -91 
Q 1428 -91 1123 -41 
Q 819 9 494 109 
L 494 744 
Q 775 591 1075 516 
Q 1375 441 1709 441 
Q 2250 441 2565 725 
Q 2881 1009 2881 1497 
Q 2881 1984 2565 2268 
Q 2250 2553 1709 2553 
Q 1456 2553 1204 2497 
Q 953 2441 691 2322 
L 691 4666 
z
" transform="scale(0.015625)"/>
     </defs>
     <use xlink:href="#DejaVuSans-32"/>
     <use xlink:href="#DejaVuSans-35" x="63.623047"/>
     <use xlink:href="#DejaVuSans-2e" x="127.246094"/>
     <use xlink:href="#DejaVuSans-32" x="159.033203"/>
     <use xlink:href="#DejaVuSans-25" x="222.65625"/>
    </g>
   </g>
   <g id="text_4">
    <!-- 54.2% -->
    <g transform="translate(321.638234 190.020226)scale(0.1 -0.1)">
     <use xlink:href="#DejaVuSans-35"/>
     <use xlink:href="#DejaVuSans-34" x="63.623047"/>
     <use xlink:href="#DejaVuSans-2e" x="127.246094"/>
     <use xlink:href="#DejaVuSans-32" x="159.033203"/>
     <use xlink:href="#DejaVuSans-25" x="222.65625"/>
    </g>
   </g>
   <g id="text_5">
    <!-- facs_score -->
    <g transform="translate(195.250469 35.472)scale(0.14 -0.14)">
     <defs>
      <path id="DejaVuSans-Bold-66" d="M 2841 4863 
L 2841 4128 
L 2222 4128 
Q 1984 4128 1890 4042 
Q 1797 3956 1797 3744 
L 1797 3500 
L 2753 3500 
L 2753 2700 
L 1797 2700 
L 1797 0 
L 678 0 
L 678 2700 
L 122 2700 
L 122 3500 
L 678 3500 
L 678 3744 
Q 678 4316 997 4589 
Q 1316 4863 1984 4863 
L 2841 4863 
z
" transform="scale(0.015625)"/>
      <path id="DejaVuSans-Bold-61" d="M 2106 1575 
Q 1756 1575 1579 1456 
Q 1403 1338 1403 1106 
Q 1403 894 1545 773 
Q 1688 653 1941 653 
Q 2256 653 2472 879 
Q 2688 1106 2688 1447 
L 2688 1575 
L 2106 1575 
z
M 3816 1997 
L 3816 0 
L 2688 0 
L 2688 519 
Q 2463 200 2181 54 
Q 1900 -91 1497 -91 
Q 953 -91 614 226 
Q 275 544 275 1050 
Q 275 1666 698 1953 
Q 1122 2241 2028 2241 
L 2688 2241 
L 2688 2328 
Q 2688 2594 2478 2717 
Q 2269 2841 1825 2841 
Q 1466 2841 1156 2769 
Q 847 2697 581 2553 
L 581 3406 
Q 941 3494 1303 3539 
Q 1666 3584 2028 3584 
Q 2975 3584 3395 3211 
Q 3816 2838 3816 1997 
z
" transform="scale(0.015625)"/>
      <path id="DejaVuSans-Bold-63" d="M 3366 3391 
L 3366 2478 
Q 3138 2634 2908 2709 
Q 2678 2784 2431 2784 
Q 1963 2784 1702 2511 
Q 1441 2238 1441 1747 
Q 1441 1256 1702 982 
Q 1963 709 2431 709 
Q 2694 709 2930 787 
Q 3166 866 3366 1019 
L 3366 103 
Q 3103 6 2833 -42 
Q 2563 -91 2291 -91 
Q 1344 -91 809 395 
Q 275 881 275 1747 
Q 275 2613 809 3098 
Q 1344 3584 2291 3584 
Q 2566 3584 2833 3536 
Q 3100 3488 3366 3391 
z
" transform="scale(0.015625)"/>
      <path id="DejaVuSans-Bold-73" d="M 3272 3391 
L 3272 2541 
Q 2913 2691 2578 2766 
Q 2244 2841 1947 2841 
Q 1628 2841 1473 2761 
Q 1319 2681 1319 2516 
Q 1319 2381 1436 2309 
Q 1553 2238 1856 2203 
L 2053 2175 
Q 2913 2066 3209 1816 
Q 3506 1566 3506 1031 
Q 3506 472 3093 190 
Q 2681 -91 1863 -91 
Q 1516 -91 1145 -36 
Q 775 19 384 128 
L 384 978 
Q 719 816 1070 734 
Q 1422 653 1784 653 
Q 2113 653 2278 743 
Q 2444 834 2444 1013 
Q 2444 1163 2330 1236 
Q 2216 1309 1875 1350 
L 1678 1375 
Q 931 1469 631 1722 
Q 331 1975 331 2491 
Q 331 3047 712 3315 
Q 1094 3584 1881 3584 
Q 2191 3584 2531 3537 
Q 2872 3491 3272 3391 
z
" transform="scale(0.015625)"/>
      <path id="DejaVuSans-Bold-5f" d="M 3200 -916 
L 3200 -1509 
L 0 -1509 
L 0 -916 
L 3200 -916 
z
" transform="scale(0.015625)"/>
      <path id="DejaVuSans-Bold-6f" d="M 2203 2784 
Q 1831 2784 1636 2517 
Q 1441 2250 1441 1747 
Q 1441 1244 1636 976 
Q 1831 709 2203 709 
Q 2569 709 2762 976 
Q 2956 1244 2956 1747 
Q 2956 2250 2762 2517 
Q 2569 2784 2203 2784 
z
M 2203 3584 
Q 3106 3584 3614 3096 
Q 4122 2609 4122 1747 
Q 4122 884 3614 396 
Q 3106 -91 2203 -91 
Q 1297 -91 786 396 
Q 275 884 275 1747 
Q 275 2609 786 3096 
Q 1297 3584 2203 3584 
z
" transform="scale(0.015625)"/>
      <path id="DejaVuSans-Bold-72" d="M 3138 2547 
Q 2991 2616 2845 2648 
Q 2700 2681 2553 2681 
Q 2122 2681 1889 2404 
Q 1656 2128 1656 1613 
L 1656 0 
L 538 0 
L 538 3500 
L 1656 3500 
L 1656 2925 
Q 1872 3269 2151 3426 
Q 2431 3584 2822 3584 
Q 2878 3584 2943 3579 
Q 3009 3575 3134 3559 
L 3138 2547 
z
" transform="scale(0.015625)"/>
      <path id="DejaVuSans-Bold-65" d="M 4031 1759 
L 4031 1441 
L 1416 1441 
Q 1456 1047 1700 850 
Q 1944 653 2381 653 
Q 2734 653 3104 758 
Q 3475 863 3866 1075 
L 3866 213 
Q 3469 63 3072 -14 
Q 2675 -91 2278 -91 
Q 1328 -91 801 392 
Q 275 875 275 1747 
Q 275 2603 792 3093 
Q 1309 3584 2216 3584 
Q 3041 3584 3536 3087 
Q 4031 2591 4031 1759 
z
M 2881 2131 
Q 2881 2450 2695 2645 
Q 2509 2841 2209 2841 
Q 1884 2841 1681 2658 
Q 1478 2475 1428 2131 
L 2881 2131 
z
" transform="scale(0.015625)"/>
     </defs>
     <use xlink:href="#DejaVuSans-Bold-66"/>
     <use xlink:href="#DejaVuSans-Bold-61" x="43.505859"/>
     <use xlink:href="#DejaVuSans-Bold-63" x="110.986328"/>
     <use xlink:href="#DejaVuSans-Bold-73" x="170.263672"/>
     <use xlink:href="#DejaVuSans-Bold-5f" x="229.785156"/>
     <use xlink:href="#DejaVuSans-Bold-73" x="279.785156"/>
     <use xlink:href="#DejaVuSans-Bold-63" x="339.306641"/>
     <use xlink:href="#DejaVuSans-Bold-6f" x="398.583984"/>
     <use xlink:href="#DejaVuSans-Bold-72" x="467.285156"/>
     <use xlink:href="#DejaVuSans-Bold-65" x="516.601562"/>
    </g>
   </g>
   <g id="legend_1">
    <g id="patch_22">
     <path d="M 64.6 196.25325 
L 112.503125 196.25325 
Q 114.503125 196.25325 114.503125 194.25325 
L 114.503125 48.472 
Q 114.503125 46.472 112.503125 46.472 
L 64.6 46.472 
Q 62.6 46.472 62.6 48.472 
L 62.6 194.25325 
Q 62.6 196.25325 64.6 196.25325 
z
" style="fill: #ffffff; opacity: 0.8; stroke: #cccccc; stroke-linejoin: miter"/>
    </g>
    <g id="patch_23">
     <path d="M 66.6 58.070437 
L 86.6 58.070437 
L 86.6 51.070437 
L 66.6 51.070437 
z
" style="fill: #ff9999"/>
    </g>
    <g id="text_6">
     <!-- 0.5 -->
     <g transform="translate(94.6 58.070437)scale(0.1 -0.1)">
      <defs>
       <path id="DejaVuSans-30" d="M 2034 4250 
Q 1547 4250 1301 3770 
Q 1056 3291 1056 2328 
Q 1056 1369 1301 889 
Q 1547 409 2034 409 
Q 2525 409 2770 889 
Q 3016 1369 3016 2328 
Q 3016 3291 2770 3770 
Q 2525 4250 2034 4250 
z
M 2034 4750 
Q 2819 4750 3233 4129 
Q 3647 3509 3647 2328 
Q 3647 1150 3233 529 
Q 2819 -91 2034 -91 
Q 1250 -91 836 529 
Q 422 1150 422 2328 
Q 422 3509 836 4129 
Q 1250 4750 2034 4750 
z
" transform="scale(0.015625)"/>
      </defs>
      <use xlink:href="#DejaVuSans-30"/>
      <use xlink:href="#DejaVuSans-2e" x="63.623047"/>
      <use xlink:href="#DejaVuSans-35" x="95.410156"/>
     </g>
    </g>
    <g id="patch_24">
     <path d="M 66.6 72.748562 
L 86.6 72.748562 
L 86.6 65.748562 
L 66.6 65.748562 
z
" style="fill: #66b3ff"/>
    </g>
    <g id="text_7">
     <!-- 1.0 -->
     <g transform="translate(94.6 72.748562)scale(0.1 -0.1)">
      <use xlink:href="#DejaVuSans-31"/>
      <use xlink:href="#DejaVuSans-2e" x="63.623047"/>
      <use xlink:href="#DejaVuSans-30" x="95.410156"/>
     </g>
    </g>
    <g id="patch_25">
     <path d="M 66.6 87.426688 
L 86.6 87.426688 
L 86.6 80.426688 
L 66.6 80.426688 
z
" style="fill: #99ff99"/>
    </g>
    <g id="text_8">
     <!-- 1.5 -->
     <g transform="translate(94.6 87.426688)scale(0.1 -0.1)">
      <use xlink:href="#DejaVuSans-31"/>
      <use xlink:href="#DejaVuSans-2e" x="63.623047"/>
      <use xlink:href="#DejaVuSans-35" x="95.410156"/>
     </g>
    </g>
    <g id="patch_26">
     <path d="M 66.6 102.104812 
L 86.6 102.104812 
L 86.6 95.104812 
L 66.6 95.104812 
z
" style="fill: #ffcc99"/>
    </g>
    <g id="text_9">
     <!-- 2.0 -->
     <g transform="translate(94.6 102.104812)scale(0.1 -0.1)">
      <use xlink:href="#DejaVuSans-32"/>
      <use xlink:href="#DejaVuSans-2e" x="63.623047"/>
      <use xlink:href="#DejaVuSans-30" x="95.410156"/>
     </g>
    </g>
    <g id="patch_27">
     <path d="M 66.6 116.782938 
L 86.6 116.782938 
L 86.6 109.782938 
L 66.6 109.782938 
z
" style="fill: #e6e6e6"/>
    </g>
    <g id="text_10">
     <!-- 2.5 -->
     <g transform="translate(94.6 116.782938)scale(0.1 -0.1)">
      <use xlink:href="#DejaVuSans-32"/>
      <use xlink:href="#DejaVuSans-2e" x="63.623047"/>
      <use xlink:href="#DejaVuSans-35" x="95.410156"/>
     </g>
    </g>
    <g id="patch_28">
     <path d="M 66.6 131.461062 
L 86.6 131.461062 
L 86.6 124.461062 
L 66.6 124.461062 
z
" style="fill: #f7cac9"/>
    </g>
    <g id="text_11">
     <!-- 3.0 -->
     <g transform="translate(94.6 131.461062)scale(0.1 -0.1)">
      <defs>
       <path id="DejaVuSans-33" d="M 2597 2516 
Q 3050 2419 3304 2112 
Q 3559 1806 3559 1356 
Q 3559 666 3084 287 
Q 2609 -91 1734 -91 
Q 1441 -91 1130 -33 
Q 819 25 488 141 
L 488 750 
Q 750 597 1062 519 
Q 1375 441 1716 441 
Q 2309 441 2620 675 
Q 2931 909 2931 1356 
Q 2931 1769 2642 2001 
Q 2353 2234 1838 2234 
L 1294 2234 
L 1294 2753 
L 1863 2753 
Q 2328 2753 2575 2939 
Q 2822 3125 2822 3475 
Q 2822 3834 2567 4026 
Q 2313 4219 1838 4219 
Q 1578 4219 1281 4162 
Q 984 4106 628 3988 
L 628 4550 
Q 988 4650 1302 4700 
Q 1616 4750 1894 4750 
Q 2613 4750 3031 4423 
Q 3450 4097 3450 3541 
Q 3450 3153 3228 2886 
Q 3006 2619 2597 2516 
z
" transform="scale(0.015625)"/>
      </defs>
      <use xlink:href="#DejaVuSans-33"/>
      <use xlink:href="#DejaVuSans-2e" x="63.623047"/>
      <use xlink:href="#DejaVuSans-30" x="95.410156"/>
     </g>
    </g>
    <g id="patch_29">
     <path d="M 66.6 146.139187 
L 86.6 146.139187 
L 86.6 139.139187 
L 66.6 139.139187 
z
" style="fill: #92a8d1"/>
    </g>
    <g id="text_12">
     <!-- 3.5 -->
     <g transform="translate(94.6 146.139187)scale(0.1 -0.1)">
      <use xlink:href="#DejaVuSans-33"/>
      <use xlink:href="#DejaVuSans-2e" x="63.623047"/>
      <use xlink:href="#DejaVuSans-35" x="95.410156"/>
     </g>
    </g>
    <g id="patch_30">
     <path d="M 66.6 160.817312 
L 86.6 160.817312 
L 86.6 153.817312 
L 66.6 153.817312 
z
" style="fill: #f4dada"/>
    </g>
    <g id="text_13">
     <!-- 4.0 -->
     <g transform="translate(94.6 160.817312)scale(0.1 -0.1)">
      <use xlink:href="#DejaVuSans-34"/>
      <use xlink:href="#DejaVuSans-2e" x="63.623047"/>
      <use xlink:href="#DejaVuSans-30" x="95.410156"/>
     </g>
    </g>
    <g id="patch_31">
     <path d="M 66.6 175.495437 
L 86.6 175.495437 
L 86.6 168.495437 
L 66.6 168.495437 
z
" style="fill: #c4a29e"/>
    </g>
    <g id="text_14">
     <!-- 4.5 -->
     <g transform="translate(94.6 175.495437)scale(0.1 -0.1)">
      <use xlink:href="#DejaVuSans-34"/>
      <use xlink:href="#DejaVuSans-2e" x="63.623047"/>
      <use xlink:href="#DejaVuSans-35" x="95.410156"/>
     </g>
    </g>
    <g id="patch_32">
     <path d="M 66.6 190.173562 
L 86.6 190.173562 
L 86.6 183.173562 
L 66.6 183.173562 
z
" style="fill: #f9d5e5"/>
    </g>
    <g id="text_15">
     <!-- 5.0 -->
     <g transform="translate(94.6 190.173562)scale(0.1 -0.1)">
      <use xlink:href="#DejaVuSans-35"/>
      <use xlink:href="#DejaVuSans-2e" x="63.623047"/>
      <use xlink:href="#DejaVuSans-30" x="95.410156"/>
     </g>
    </g>
   </g>
  </g>
 </g>
</svg>
