<?xml version="1.0" encoding="utf-8" standalone="no"?>
<!DOCTYPE svg PUBLIC "-//W3C//DTD SVG 1.1//EN"
  "http://www.w3.org/Graphics/SVG/1.1/DTD/svg11.dtd">
<svg xmlns:xlink="http://www.w3.org/1999/xlink" width="460.8pt" height="345.6pt" viewBox="0 0 460.8 345.6" xmlns="http://www.w3.org/2000/svg" version="1.1">
 <metadata>
  <rdf:RDF xmlns:dc="http://purl.org/dc/elements/1.1/" xmlns:cc="http://creativecommons.org/ns#" xmlns:rdf="http://www.w3.org/1999/02/22-rdf-syntax-ns#">
   <cc:Work>
    <dc:type rdf:resource="http://purl.org/dc/dcmitype/StillImage"/>
    <dc:date>2023-05-14T11:59:25.920993</dc:date>
    <dc:format>image/svg+xml</dc:format>
    <dc:creator>
     <cc:Agent>
      <dc:title>Matplotlib v3.5.3, https://matplotlib.org/</dc:title>
     </cc:Agent>
    </dc:creator>
   </cc:Work>
  </rdf:RDF>
 </metadata>
 <defs>
  <style type="text/css">*{stroke-linejoin: round; stroke-linecap: butt}</style>
 </defs>
 <g id="figure_1">
  <g id="patch_1">
   <path d="M 0 345.6 
L 460.8 345.6 
L 460.8 0 
L 0 0 
z
" style="fill: #ffffff"/>
  </g>
  <g id="axes_1">
   <g id="patch_2">
    <path d="M 233.727931 55.977096 
C 231.977576 55.977096 230.227428 56.015248 228.478735 56.091525 
C 226.730043 56.167802 224.98322 56.282187 223.239513 56.434596 
L 233.727931 176.431877 
L 233.727931 55.977096 
z
" style="fill: #4c2e2e; opacity: 0.5; stroke: #4c2e2e; stroke-linejoin: miter"/>
   </g>
   <g id="patch_3">
    <path d="M 223.239513 56.434596 
C 223.160256 56.441524 223.081007 56.448529 223.001764 56.455614 
C 222.922522 56.462698 222.843287 56.469861 222.764058 56.477103 
L 233.727931 176.431877 
L 223.239513 56.434596 
z
" style="fill: #1f364c; opacity: 0.5; stroke: #1f364c; stroke-linejoin: miter"/>
   </g>
   <g id="patch_4">
    <path d="M 222.764058 56.477103 
C 222.565988 56.495207 222.367962 56.513801 222.169984 56.532885 
C 221.972005 56.55197 221.774074 56.571545 221.576193 56.59161 
L 233.727931 176.431877 
L 222.764058 56.477103 
z
" style="fill: #2e4c2e; opacity: 0.5; stroke: #2e4c2e; stroke-linejoin: miter"/>
   </g>
   <g id="patch_5">
    <path d="M 221.576193 56.59161 
C 221.180429 56.63174 220.784866 56.673831 220.389519 56.71788 
C 219.994173 56.761929 219.599047 56.807936 219.204156 56.8559 
L 233.727931 176.431877 
L 221.576193 56.59161 
z
" style="fill: #4c3d2e; opacity: 0.5; stroke: #4c3d2e; stroke-linejoin: miter"/>
   </g>
   <g id="patch_6">
    <path d="M 219.204156 56.8559 
C 218.493349 56.942235 217.783325 57.034906 217.074171 57.133903 
C 216.365017 57.232899 215.656759 57.338217 214.949483 57.449844 
L 233.727931 176.431877 
L 219.204156 56.8559 
z
" style="fill: #454545; opacity: 0.5; stroke: #454545; stroke-linejoin: miter"/>
   </g>
   <g id="patch_7">
    <path d="M 214.949483 57.449844 
C 213.927854 57.611083 212.908344 57.785474 211.891207 57.972973 
C 210.87407 58.160473 209.85939 58.361064 208.84742 58.574699 
L 233.727931 176.431877 
L 214.949483 57.449844 
z
" style="fill: #4a3d3c; opacity: 0.5; stroke: #4a3d3c; stroke-linejoin: miter"/>
   </g>
   <g id="patch_8">
    <path d="M 208.84742 58.574699 
C 203.240363 59.758389 197.724919 61.340706 192.343125 63.309589 
C 186.961331 65.278471 181.726895 67.628905 176.679714 70.342974 
L 233.727931 176.431877 
L 208.84742 58.574699 
z
" style="fill: #2c323f; opacity: 0.5; stroke: #2c323f; stroke-linejoin: miter"/>
   </g>
   <g id="patch_9">
    <path d="M 176.679714 70.342974 
C 162.72614 77.846365 150.389029 88.029474 140.376632 100.307707 
C 130.364234 112.58594 122.871887 126.719757 118.329712 141.897759 
L 233.727931 176.431877 
L 176.679714 70.342974 
z
" style="fill: #494141; opacity: 0.5; stroke: #494141; stroke-linejoin: miter"/>
   </g>
   <g id="patch_10">
    <path d="M 118.329712 141.897759 
C 113.608999 157.672356 112.172549 174.248672 114.109315 190.600185 
C 116.046081 206.951699 121.315242 222.733764 129.590495 236.969045 
C 137.865748 251.204327 148.972672 263.592784 162.223451 273.367236 
C 175.47423 283.141688 190.589571 290.096117 206.633429 293.799856 
L 233.727931 176.431877 
L 118.329712 141.897759 
z
" style="fill: #3b312f; opacity: 0.5; stroke: #3b312f; stroke-linejoin: miter"/>
   </g>
   <g id="patch_11">
    <path d="M 206.633429 293.799856 
C 223.166965 297.616637 240.32193 297.897096 256.971394 294.622807 
C 273.620858 291.348519 289.392085 284.592786 303.249041 274.799401 
C 317.105997 265.006017 328.738464 252.394228 337.38229 237.79252 
C 346.026116 223.190811 351.487789 206.926076 353.408524 190.066764 
C 355.32926 173.207452 353.666059 156.130999 348.528178 139.959178 
C 343.390297 123.787356 334.89276 108.882211 323.593781 96.222879 
C 312.294802 83.563547 298.447335 73.433436 282.961036 66.498007 
C 267.474738 59.562578 250.696305 55.977096 233.727934 55.977096 
L 233.727931 176.431877 
L 206.633429 293.799856 
z
" style="fill: #4b4045; opacity: 0.5; stroke: #4b4045; stroke-linejoin: miter"/>
   </g>
   <g id="patch_12">
    <path d="M 236.137027 53.568 
C 234.386672 53.568 232.636524 53.606152 230.887831 53.682429 
C 229.139138 53.758707 227.392316 53.873091 225.648608 54.0255 
L 236.137027 174.022782 
L 236.137027 53.568 
z
" style="fill: #ff9999"/>
   </g>
   <g id="patch_13">
    <path d="M 225.648608 54.0255 
C 225.569352 54.032428 225.490102 54.039434 225.41086 54.046518 
C 225.331618 54.053603 225.252382 54.060766 225.173154 54.068007 
L 236.137027 174.022782 
L 225.648608 54.0255 
z
" style="fill: #66b3ff"/>
   </g>
   <g id="patch_14">
    <path d="M 225.173154 54.068007 
C 224.975083 54.086111 224.777058 54.104705 224.579079 54.12379 
C 224.381101 54.142874 224.18317 54.162449 223.985288 54.182514 
L 236.137027 174.022782 
L 225.173154 54.068007 
z
" style="fill: #99ff99"/>
   </g>
   <g id="patch_15">
    <path d="M 223.985288 54.182514 
C 223.589524 54.222645 223.193962 54.264735 222.798615 54.308784 
C 222.403268 54.352833 222.008142 54.398841 221.613251 54.446804 
L 236.137027 174.022782 
L 223.985288 54.182514 
z
" style="fill: #ffcc99"/>
   </g>
   <g id="patch_16">
    <path d="M 221.613251 54.446804 
C 220.902444 54.533139 220.192421 54.625811 219.483267 54.724807 
C 218.774112 54.823804 218.065855 54.929122 217.358578 55.040748 
L 236.137027 174.022782 
L 221.613251 54.446804 
z
" style="fill: #e6e6e6"/>
   </g>
   <g id="patch_17">
    <path d="M 217.358578 55.040748 
C 216.336949 55.201988 215.31744 55.376379 214.300303 55.563878 
C 213.283166 55.751377 212.268486 55.951969 211.256516 56.165603 
L 236.137027 174.022782 
L 217.358578 55.040748 
z
" style="fill: #f7cac9"/>
   </g>
   <g id="patch_18">
    <path d="M 211.256516 56.165603 
C 205.649459 57.349294 200.134015 58.93161 194.75222 60.900493 
C 189.370426 62.869376 184.135991 65.219809 179.08881 67.933879 
L 236.137027 174.022782 
L 211.256516 56.165603 
z
" style="fill: #92a8d1"/>
   </g>
   <g id="patch_19">
    <path d="M 179.08881 67.933879 
C 165.135236 75.43727 152.798124 85.620379 142.785727 97.898612 
C 132.77333 110.176845 125.280983 124.310661 120.738807 139.488663 
L 236.137027 174.022782 
L 179.08881 67.933879 
z
" style="fill: #f4dada"/>
   </g>
   <g id="patch_20">
    <path d="M 120.738807 139.488663 
C 116.018095 155.263261 114.581644 171.839576 116.51841 188.19109 
C 118.455176 204.542603 123.724337 220.324668 131.99959 234.55995 
C 140.274843 248.795232 151.381768 261.183688 164.632547 270.95814 
C 177.883326 280.732593 192.998667 287.687022 209.042525 291.39076 
L 236.137027 174.022782 
L 120.738807 139.488663 
z
" style="fill: #c4a29e"/>
   </g>
   <g id="patch_21">
    <path d="M 209.042525 291.39076 
C 225.576061 295.207542 242.731026 295.488 259.38049 292.213712 
C 276.029954 288.939423 291.80118 282.18369 305.658137 272.390306 
C 319.515093 262.596921 331.14756 249.985133 339.791385 235.383424 
C 348.435211 220.781716 353.896884 204.51698 355.81762 187.657668 
C 357.738356 170.798356 356.075154 153.721903 350.937274 137.550082 
C 345.799393 121.378261 337.301856 106.473115 326.002877 93.813783 
C 314.703898 81.154451 300.85643 71.02434 285.370132 64.088911 
C 269.883833 57.153482 253.1054 53.568 236.137029 53.568 
L 236.137027 174.022782 
L 209.042525 291.39076 
z
" style="fill: #f9d5e5"/>
   </g>
   <g id="matplotlib.axis_1"/>
   <g id="matplotlib.axis_2"/>
   <g id="text_1">
    <!-- 4.5% -->
    <g transform="translate(188.257598 80.628211)scale(0.1 -0.1)">
     <defs>
      <path id="DejaVuSans-34" d="M 2419 4116 
L 825 1625 
L 2419 1625 
L 2419 4116 
z
M 2253 4666 
L 3047 4666 
L 3047 1625 
L 3713 1625 
L 3713 1100 
L 3047 1100 
L 3047 0 
L 2419 0 
L 2419 1100 
L 313 1100 
L 313 1709 
L 2253 4666 
z
" transform="scale(0.015625)"/>
      <path id="DejaVuSans-2e" d="M 684 794 
L 1344 794 
L 1344 0 
L 684 0 
L 684 794 
z
" transform="scale(0.015625)"/>
      <path id="DejaVuSans-35" d="M 691 4666 
L 3169 4666 
L 3169 4134 
L 1269 4134 
L 1269 2991 
Q 1406 3038 1543 3061 
Q 1681 3084 1819 3084 
Q 2600 3084 3056 2656 
Q 3513 2228 3513 1497 
Q 3513 744 3044 326 
Q 2575 -91 1722 -91 
Q 1428 -91 1123 -41 
Q 819 9 494 109 
L 494 744 
Q 775 591 1075 516 
Q 1375 441 1709 441 
Q 2250 441 2565 725 
Q 2881 1009 2881 1497 
Q 2881 1984 2565 2268 
Q 2250 2553 1709 2553 
Q 1456 2553 1204 2497 
Q 953 2441 691 2322 
L 691 4666 
z
" transform="scale(0.015625)"/>
      <path id="DejaVuSans-25" d="M 4653 2053 
Q 4381 2053 4226 1822 
Q 4072 1591 4072 1178 
Q 4072 772 4226 539 
Q 4381 306 4653 306 
Q 4919 306 5073 539 
Q 5228 772 5228 1178 
Q 5228 1588 5073 1820 
Q 4919 2053 4653 2053 
z
M 4653 2450 
Q 5147 2450 5437 2106 
Q 5728 1763 5728 1178 
Q 5728 594 5436 251 
Q 5144 -91 4653 -91 
Q 4153 -91 3862 251 
Q 3572 594 3572 1178 
Q 3572 1766 3864 2108 
Q 4156 2450 4653 2450 
z
M 1428 4353 
Q 1159 4353 1004 4120 
Q 850 3888 850 3481 
Q 850 3069 1003 2837 
Q 1156 2606 1428 2606 
Q 1700 2606 1854 2837 
Q 2009 3069 2009 3481 
Q 2009 3884 1853 4118 
Q 1697 4353 1428 4353 
z
M 4250 4750 
L 4750 4750 
L 1831 -91 
L 1331 -91 
L 4250 4750 
z
M 1428 4750 
Q 1922 4750 2215 4408 
Q 2509 4066 2509 3481 
Q 2509 2891 2217 2550 
Q 1925 2209 1428 2209 
Q 931 2209 642 2551 
Q 353 2894 353 3481 
Q 353 4063 643 4406 
Q 934 4750 1428 4750 
z
" transform="scale(0.015625)"/>
     </defs>
     <use xlink:href="#DejaVuSans-34"/>
     <use xlink:href="#DejaVuSans-2e" x="63.623047"/>
     <use xlink:href="#DejaVuSans-35" x="95.410156"/>
     <use xlink:href="#DejaVuSans-25" x="159.033203"/>
    </g>
   </g>
   <g id="text_2">
    <!-- 12.5% -->
    <g transform="translate(140.904828 112.076612)scale(0.1 -0.1)">
     <defs>
      <path id="DejaVuSans-31" d="M 794 531 
L 1825 531 
L 1825 4091 
L 703 3866 
L 703 4441 
L 1819 4666 
L 2450 4666 
L 2450 531 
L 3481 531 
L 3481 0 
L 794 0 
L 794 531 
z
" transform="scale(0.015625)"/>
      <path id="DejaVuSans-32" d="M 1228 531 
L 3431 531 
L 3431 0 
L 469 0 
L 469 531 
Q 828 903 1448 1529 
Q 2069 2156 2228 2338 
Q 2531 2678 2651 2914 
Q 2772 3150 2772 3378 
Q 2772 3750 2511 3984 
Q 2250 4219 1831 4219 
Q 1534 4219 1204 4116 
Q 875 4013 500 3803 
L 500 4441 
Q 881 4594 1212 4672 
Q 1544 4750 1819 4750 
Q 2544 4750 2975 4387 
Q 3406 4025 3406 3419 
Q 3406 3131 3298 2873 
Q 3191 2616 2906 2266 
Q 2828 2175 2409 1742 
Q 1991 1309 1228 531 
z
" transform="scale(0.015625)"/>
     </defs>
     <use xlink:href="#DejaVuSans-31"/>
     <use xlink:href="#DejaVuSans-32" x="63.623047"/>
     <use xlink:href="#DejaVuSans-2e" x="127.246094"/>
     <use xlink:href="#DejaVuSans-35" x="159.033203"/>
     <use xlink:href="#DejaVuSans-25" x="222.65625"/>
    </g>
   </g>
   <g id="text_3">
    <!-- 26.0% -->
    <g transform="translate(131.736612 228.23875)scale(0.1 -0.1)">
     <defs>
      <path id="DejaVuSans-36" d="M 2113 2584 
Q 1688 2584 1439 2293 
Q 1191 2003 1191 1497 
Q 1191 994 1439 701 
Q 1688 409 2113 409 
Q 2538 409 2786 701 
Q 3034 994 3034 1497 
Q 3034 2003 2786 2293 
Q 2538 2584 2113 2584 
z
M 3366 4563 
L 3366 3988 
Q 3128 4100 2886 4159 
Q 2644 4219 2406 4219 
Q 1781 4219 1451 3797 
Q 1122 3375 1075 2522 
Q 1259 2794 1537 2939 
Q 1816 3084 2150 3084 
Q 2853 3084 3261 2657 
Q 3669 2231 3669 1497 
Q 3669 778 3244 343 
Q 2819 -91 2113 -91 
Q 1303 -91 875 529 
Q 447 1150 447 2328 
Q 447 3434 972 4092 
Q 1497 4750 2381 4750 
Q 2619 4750 2861 4703 
Q 3103 4656 3366 4563 
z
" transform="scale(0.015625)"/>
      <path id="DejaVuSans-30" d="M 2034 4250 
Q 1547 4250 1301 3770 
Q 1056 3291 1056 2328 
Q 1056 1369 1301 889 
Q 1547 409 2034 409 
Q 2525 409 2770 889 
Q 3016 1369 3016 2328 
Q 3016 3291 2770 3770 
Q 2525 4250 2034 4250 
z
M 2034 4750 
Q 2819 4750 3233 4129 
Q 3647 3509 3647 2328 
Q 3647 1150 3233 529 
Q 2819 -91 2034 -91 
Q 1250 -91 836 529 
Q 422 1150 422 2328 
Q 422 3509 836 4129 
Q 1250 4750 2034 4750 
z
" transform="scale(0.015625)"/>
     </defs>
     <use xlink:href="#DejaVuSans-32"/>
     <use xlink:href="#DejaVuSans-36" x="63.623047"/>
     <use xlink:href="#DejaVuSans-2e" x="127.246094"/>
     <use xlink:href="#DejaVuSans-30" x="159.033203"/>
     <use xlink:href="#DejaVuSans-25" x="222.65625"/>
    </g>
   </g>
   <g id="text_4">
    <!-- 53.6% -->
    <g transform="translate(321.981937 188.37181)scale(0.1 -0.1)">
     <defs>
      <path id="DejaVuSans-33" d="M 2597 2516 
Q 3050 2419 3304 2112 
Q 3559 1806 3559 1356 
Q 3559 666 3084 287 
Q 2609 -91 1734 -91 
Q 1441 -91 1130 -33 
Q 819 25 488 141 
L 488 750 
Q 750 597 1062 519 
Q 1375 441 1716 441 
Q 2309 441 2620 675 
Q 2931 909 2931 1356 
Q 2931 1769 2642 2001 
Q 2353 2234 1838 2234 
L 1294 2234 
L 1294 2753 
L 1863 2753 
Q 2328 2753 2575 2939 
Q 2822 3125 2822 3475 
Q 2822 3834 2567 4026 
Q 2313 4219 1838 4219 
Q 1578 4219 1281 4162 
Q 984 4106 628 3988 
L 628 4550 
Q 988 4650 1302 4700 
Q 1616 4750 1894 4750 
Q 2613 4750 3031 4423 
Q 3450 4097 3450 3541 
Q 3450 3153 3228 2886 
Q 3006 2619 2597 2516 
z
" transform="scale(0.015625)"/>
     </defs>
     <use xlink:href="#DejaVuSans-35"/>
     <use xlink:href="#DejaVuSans-33" x="63.623047"/>
     <use xlink:href="#DejaVuSans-2e" x="127.246094"/>
     <use xlink:href="#DejaVuSans-36" x="159.033203"/>
     <use xlink:href="#DejaVuSans-25" x="222.65625"/>
    </g>
   </g>
   <g id="text_5">
    <!-- serv_score -->
    <g transform="translate(194.406094 35.472)scale(0.14 -0.14)">
     <defs>
      <path id="DejaVuSans-Bold-73" d="M 3272 3391 
L 3272 2541 
Q 2913 2691 2578 2766 
Q 2244 2841 1947 2841 
Q 1628 2841 1473 2761 
Q 1319 2681 1319 2516 
Q 1319 2381 1436 2309 
Q 1553 2238 1856 2203 
L 2053 2175 
Q 2913 2066 3209 1816 
Q 3506 1566 3506 1031 
Q 3506 472 3093 190 
Q 2681 -91 1863 -91 
Q 1516 -91 1145 -36 
Q 775 19 384 128 
L 384 978 
Q 719 816 1070 734 
Q 1422 653 1784 653 
Q 2113 653 2278 743 
Q 2444 834 2444 1013 
Q 2444 1163 2330 1236 
Q 2216 1309 1875 1350 
L 1678 1375 
Q 931 1469 631 1722 
Q 331 1975 331 2491 
Q 331 3047 712 3315 
Q 1094 3584 1881 3584 
Q 2191 3584 2531 3537 
Q 2872 3491 3272 3391 
z
" transform="scale(0.015625)"/>
      <path id="DejaVuSans-Bold-65" d="M 4031 1759 
L 4031 1441 
L 1416 1441 
Q 1456 1047 1700 850 
Q 1944 653 2381 653 
Q 2734 653 3104 758 
Q 3475 863 3866 1075 
L 3866 213 
Q 3469 63 3072 -14 
Q 2675 -91 2278 -91 
Q 1328 -91 801 392 
Q 275 875 275 1747 
Q 275 2603 792 3093 
Q 1309 3584 2216 3584 
Q 3041 3584 3536 3087 
Q 4031 2591 4031 1759 
z
M 2881 2131 
Q 2881 2450 2695 2645 
Q 2509 2841 2209 2841 
Q 1884 2841 1681 2658 
Q 1478 2475 1428 2131 
L 2881 2131 
z
" transform="scale(0.015625)"/>
      <path id="DejaVuSans-Bold-72" d="M 3138 2547 
Q 2991 2616 2845 2648 
Q 2700 2681 2553 2681 
Q 2122 2681 1889 2404 
Q 1656 2128 1656 1613 
L 1656 0 
L 538 0 
L 538 3500 
L 1656 3500 
L 1656 2925 
Q 1872 3269 2151 3426 
Q 2431 3584 2822 3584 
Q 2878 3584 2943 3579 
Q 3009 3575 3134 3559 
L 3138 2547 
z
" transform="scale(0.015625)"/>
      <path id="DejaVuSans-Bold-76" d="M 97 3500 
L 1216 3500 
L 2088 1081 
L 2956 3500 
L 4078 3500 
L 2700 0 
L 1472 0 
L 97 3500 
z
" transform="scale(0.015625)"/>
      <path id="DejaVuSans-Bold-5f" d="M 3200 -916 
L 3200 -1509 
L 0 -1509 
L 0 -916 
L 3200 -916 
z
" transform="scale(0.015625)"/>
      <path id="DejaVuSans-Bold-63" d="M 3366 3391 
L 3366 2478 
Q 3138 2634 2908 2709 
Q 2678 2784 2431 2784 
Q 1963 2784 1702 2511 
Q 1441 2238 1441 1747 
Q 1441 1256 1702 982 
Q 1963 709 2431 709 
Q 2694 709 2930 787 
Q 3166 866 3366 1019 
L 3366 103 
Q 3103 6 2833 -42 
Q 2563 -91 2291 -91 
Q 1344 -91 809 395 
Q 275 881 275 1747 
Q 275 2613 809 3098 
Q 1344 3584 2291 3584 
Q 2566 3584 2833 3536 
Q 3100 3488 3366 3391 
z
" transform="scale(0.015625)"/>
      <path id="DejaVuSans-Bold-6f" d="M 2203 2784 
Q 1831 2784 1636 2517 
Q 1441 2250 1441 1747 
Q 1441 1244 1636 976 
Q 1831 709 2203 709 
Q 2569 709 2762 976 
Q 2956 1244 2956 1747 
Q 2956 2250 2762 2517 
Q 2569 2784 2203 2784 
z
M 2203 3584 
Q 3106 3584 3614 3096 
Q 4122 2609 4122 1747 
Q 4122 884 3614 396 
Q 3106 -91 2203 -91 
Q 1297 -91 786 396 
Q 275 884 275 1747 
Q 275 2609 786 3096 
Q 1297 3584 2203 3584 
z
" transform="scale(0.015625)"/>
     </defs>
     <use xlink:href="#DejaVuSans-Bold-73"/>
     <use xlink:href="#DejaVuSans-Bold-65" x="59.521484"/>
     <use xlink:href="#DejaVuSans-Bold-72" x="127.34375"/>
     <use xlink:href="#DejaVuSans-Bold-76" x="176.660156"/>
     <use xlink:href="#DejaVuSans-Bold-5f" x="241.845703"/>
     <use xlink:href="#DejaVuSans-Bold-73" x="291.845703"/>
     <use xlink:href="#DejaVuSans-Bold-63" x="351.367188"/>
     <use xlink:href="#DejaVuSans-Bold-6f" x="410.644531"/>
     <use xlink:href="#DejaVuSans-Bold-72" x="479.345703"/>
     <use xlink:href="#DejaVuSans-Bold-65" x="528.662109"/>
    </g>
   </g>
   <g id="legend_1">
    <g id="patch_22">
     <path d="M 64.6 196.25325 
L 112.503125 196.25325 
Q 114.503125 196.25325 114.503125 194.25325 
L 114.503125 48.472 
Q 114.503125 46.472 112.503125 46.472 
L 64.6 46.472 
Q 62.6 46.472 62.6 48.472 
L 62.6 194.25325 
Q 62.6 196.25325 64.6 196.25325 
z
" style="fill: #ffffff; opacity: 0.8; stroke: #cccccc; stroke-linejoin: miter"/>
    </g>
    <g id="patch_23">
     <path d="M 66.6 58.070437 
L 86.6 58.070437 
L 86.6 51.070437 
L 66.6 51.070437 
z
" style="fill: #ff9999"/>
    </g>
    <g id="text_6">
     <!-- 0.5 -->
     <g transform="translate(94.6 58.070437)scale(0.1 -0.1)">
      <use xlink:href="#DejaVuSans-30"/>
      <use xlink:href="#DejaVuSans-2e" x="63.623047"/>
      <use xlink:href="#DejaVuSans-35" x="95.410156"/>
     </g>
    </g>
    <g id="patch_24">
     <path d="M 66.6 72.748562 
L 86.6 72.748562 
L 86.6 65.748562 
L 66.6 65.748562 
z
" style="fill: #66b3ff"/>
    </g>
    <g id="text_7">
     <!-- 1.0 -->
     <g transform="translate(94.6 72.748562)scale(0.1 -0.1)">
      <use xlink:href="#DejaVuSans-31"/>
      <use xlink:href="#DejaVuSans-2e" x="63.623047"/>
      <use xlink:href="#DejaVuSans-30" x="95.410156"/>
     </g>
    </g>
    <g id="patch_25">
     <path d="M 66.6 87.426688 
L 86.6 87.426688 
L 86.6 80.426688 
L 66.6 80.426688 
z
" style="fill: #99ff99"/>
    </g>
    <g id="text_8">
     <!-- 1.5 -->
     <g transform="translate(94.6 87.426688)scale(0.1 -0.1)">
      <use xlink:href="#DejaVuSans-31"/>
      <use xlink:href="#DejaVuSans-2e" x="63.623047"/>
      <use xlink:href="#DejaVuSans-35" x="95.410156"/>
     </g>
    </g>
    <g id="patch_26">
     <path d="M 66.6 102.104812 
L 86.6 102.104812 
L 86.6 95.104812 
L 66.6 95.104812 
z
" style="fill: #ffcc99"/>
    </g>
    <g id="text_9">
     <!-- 2.0 -->
     <g transform="translate(94.6 102.104812)scale(0.1 -0.1)">
      <use xlink:href="#DejaVuSans-32"/>
      <use xlink:href="#DejaVuSans-2e" x="63.623047"/>
      <use xlink:href="#DejaVuSans-30" x="95.410156"/>
     </g>
    </g>
    <g id="patch_27">
     <path d="M 66.6 116.782938 
L 86.6 116.782938 
L 86.6 109.782938 
L 66.6 109.782938 
z
" style="fill: #e6e6e6"/>
    </g>
    <g id="text_10">
     <!-- 2.5 -->
     <g transform="translate(94.6 116.782938)scale(0.1 -0.1)">
      <use xlink:href="#DejaVuSans-32"/>
      <use xlink:href="#DejaVuSans-2e" x="63.623047"/>
      <use xlink:href="#DejaVuSans-35" x="95.410156"/>
     </g>
    </g>
    <g id="patch_28">
     <path d="M 66.6 131.461062 
L 86.6 131.461062 
L 86.6 124.461062 
L 66.6 124.461062 
z
" style="fill: #f7cac9"/>
    </g>
    <g id="text_11">
     <!-- 3.0 -->
     <g transform="translate(94.6 131.461062)scale(0.1 -0.1)">
      <use xlink:href="#DejaVuSans-33"/>
      <use xlink:href="#DejaVuSans-2e" x="63.623047"/>
      <use xlink:href="#DejaVuSans-30" x="95.410156"/>
     </g>
    </g>
    <g id="patch_29">
     <path d="M 66.6 146.139187 
L 86.6 146.139187 
L 86.6 139.139187 
L 66.6 139.139187 
z
" style="fill: #92a8d1"/>
    </g>
    <g id="text_12">
     <!-- 3.5 -->
     <g transform="translate(94.6 146.139187)scale(0.1 -0.1)">
      <use xlink:href="#DejaVuSans-33"/>
      <use xlink:href="#DejaVuSans-2e" x="63.623047"/>
      <use xlink:href="#DejaVuSans-35" x="95.410156"/>
     </g>
    </g>
    <g id="patch_30">
     <path d="M 66.6 160.817312 
L 86.6 160.817312 
L 86.6 153.817312 
L 66.6 153.817312 
z
" style="fill: #f4dada"/>
    </g>
    <g id="text_13">
     <!-- 4.0 -->
     <g transform="translate(94.6 160.817312)scale(0.1 -0.1)">
      <use xlink:href="#DejaVuSans-34"/>
      <use xlink:href="#DejaVuSans-2e" x="63.623047"/>
      <use xlink:href="#DejaVuSans-30" x="95.410156"/>
     </g>
    </g>
    <g id="patch_31">
     <path d="M 66.6 175.495437 
L 86.6 175.495437 
L 86.6 168.495437 
L 66.6 168.495437 
z
" style="fill: #c4a29e"/>
    </g>
    <g id="text_14">
     <!-- 4.5 -->
     <g transform="translate(94.6 175.495437)scale(0.1 -0.1)">
      <use xlink:href="#DejaVuSans-34"/>
      <use xlink:href="#DejaVuSans-2e" x="63.623047"/>
      <use xlink:href="#DejaVuSans-35" x="95.410156"/>
     </g>
    </g>
    <g id="patch_32">
     <path d="M 66.6 190.173562 
L 86.6 190.173562 
L 86.6 183.173562 
L 66.6 183.173562 
z
" style="fill: #f9d5e5"/>
    </g>
    <g id="text_15">
     <!-- 5.0 -->
     <g transform="translate(94.6 190.173562)scale(0.1 -0.1)">
      <use xlink:href="#DejaVuSans-35"/>
      <use xlink:href="#DejaVuSans-2e" x="63.623047"/>
      <use xlink:href="#DejaVuSans-30" x="95.410156"/>
     </g>
    </g>
   </g>
  </g>
 </g>
</svg>
